<svg xmlns="http://www.w3.org/2000/svg" xmlns:xlink="http://www.w3.org/1999/xlink">

    <symbol id="condividi" width="19" height="26" viewBox="0 0 19 26">
		<g stroke="#2F2240" fill="none" fill-rule="evenodd" stroke-linecap="round" stroke-linejoin="round">
			<path stroke-width="1.6" d="M5.25 5.394l4.243-4.242 4.242 4.242"/>
			<path d="M12.238 9.04h4.217c.853 0 1.545.744 1.545 1.662v11.636c0 .918-.692 1.662-1.545 1.662H2.545C1.692 24 1 23.256 1 22.338V10.702c0-.918.692-1.662 1.545-1.662h3.563M9.5 1.5v14" stroke-width="1.5"/>
		</g>
	</symbol>

    <symbol id="like" width="26" height="22" viewBox="0 0 26 22">
		<path d="M18.91.75c1.752 0 3.34.695 4.488 1.82a6.109 6.109 0 011.852 4.377c0 1.571-.596 3.038-1.58 4.13C20.721 14.622 13.284 21.25 13 21.25c-.284 0-7.76-6.641-10.648-10.148A6.207 6.207 0 01.75 6.947c0-1.71.708-3.256 1.852-4.376A6.395 6.395 0 017.09.75c1.137 0 2.247.306 3.18.827.908.508 1.64 1.393 2.058 2.232h0L13 5.152l.671-1.343c.432-.865 1.204-1.637 2.146-2.19.912-.537 1.988-.869 3.092-.869z" stroke="#2F2240" stroke-width="1.5" 	fill="none" fill-rule="evenodd"/>
	</symbol>

    <symbol id="like-purple" width="26" height="22" viewBox="0 0 26 22">
		<path d="M10.045 19.684s-6.5-5.79-8.272-8.105A6.934 6.934 0 010 6.947C0 3.11 3.175 0 7.09 0a7.33 7.33 0 013.547.922c1.04.582 1.883 1.59 2.363 2.552C13.96 1.55 16.372 0 18.91 0 22.824 0 26 3.11 26 6.947c0 1.762-.67 3.407-1.773 4.632-1.772 2.316-8.272 8.105-8.272 8.105S13.295 22 13 22c-.295 0-2.955-2.316-2.955-2.316z" fill="#7B69A2" fill-rule="evenodd"/>
	</symbol>

    <symbol id="commento" width="24" height="25" viewBox="0 0 24 25">
	    <g id="icon_commento" stroke="none" stroke-width="1" fill="none" fill-rule="evenodd">
	        <g id="icon-commento">
	            <path d="M3,0.6 C1.6745166,0.6 0.6,1.6745166 0.6,3 L0.6,11.429395 C0.6,14.6847947 2.28435586,17.7084446 5.05232026,19.4219206 L11.7526296,23.569669 C11.8132567,23.6071995 11.8828139,23.6278419 11.954099,23.6294587 C12.1749561,23.634468 12.358057,23.4594888 12.3630664,23.2386317 L12.4501312,19.4 L21,19.4 C22.3254834,19.4 23.4,18.3254834 23.4,17 L23.4,3 C23.4,1.6745166 22.3254834,0.6 21,0.6 L3,0.6 Z" id="Rectangle-7-Copy" stroke="#171C2A" stroke-width="1.2"></path>
	            <circle id="Oval-6" fill="#171C2A" cx="7" cy="10" r="1"></circle>
	            <circle id="Oval-6-Copy" fill="#171C2A" cx="12" cy="10" r="1"></circle>
	            <circle id="Oval-6-Copy-2" fill="#171C2A" cx="17" cy="10" r="1"></circle>
	        </g>
	    </g>
	</symbol>

	<symbol id="commento-new" width="25" height="27" viewBox="0 0 25 27">
		<g stroke="#2F2240" fill="none" fill-rule="evenodd">
			<path d="M21.183 1.75c.57 0 1.088.231 1.462.605.374.374.605.891.605 1.462h0v14.566a2.06 2.06 0 01-.605 1.462 2.06 2.06 0 01-1.462.605h0-8.423l-.088 3.89-6.84-3.906a8.64 8.64 0 01-4.082-7.34h0V3.817c0-.57.231-1.088.605-1.462a2.06 2.06 0 011.462-.605h0z" stroke-width="1.5"/><path d="M7.92 10c.508 0 .92.413.92.923s-.412.923-.92.923a.922.922 0 01-.92-.923c0-.51.412-.923.92-.923zm4.55 0c.508 0 .92.413.92.923s-.412.923-.92.923a.922.922 0 01-.92-.923c0-.51.412-.923.92-.923zm4.35 0c.508 0 .92.413.92.923s-.412.923-.92.923a.922.922 0 01-.92-.923c0-.51.412-.923.92-.923z" fill="#2F2240"/>
		</g>
	</symbol>

	<symbol id="commento-new-add" width="28" height="30" viewBox="0 0 28 30">
		<defs>
			<circle id="a" cx="4.5" cy="4.5" r="4.5"/>
		</defs>
		<g fill="none" fill-rule="evenodd">
			<path d="M21.183 4.75c.57 0 1.088.231 1.462.605.374.374.605.891.605 1.462h0v14.566a2.06 2.06 0 01-.605 1.462 2.06 2.06 0 01-1.462.605h0-8.423l-.088 3.89-6.84-3.906a8.64 8.64 0 01-4.082-7.34h0V6.817c0-.57.231-1.088.605-1.462a2.06 2.06 0 011.462-.605h0z" stroke="#2F2240" stroke-width="1.5"/>
			<path d="M7.92 13c.508 0 .92.413.92.923s-.412.923-.92.923a.922.922 0 01-.92-.923c0-.51.412-.923.92-.923zm4.55 0c.508 0 .92.413.92.923s-.412.923-.92.923a.922.922 0 01-.92-.923c0-.51.412-.923.92-.923zm4.35 0c.508 0 .92.413.92.923s-.412.923-.92.923a.922.922 0 01-.92-.923c0-.51.412-.923.92-.923z" stroke="#2F2240" fill="#2F2240"/>
			<g transform="translate(17 2)">
				<use fill="#F7972E" xlink:href="#a"/>
				<circle stroke="#FFF" stroke-width="1.5" cx="4.5" cy="4.5" r="5.25"/>
				<use stroke="#F7972E" xlink:href="#a"/>
			</g>
			<path d="M21.5 3.9a.6.6 0 01.592.503l.008.097v1.4h1.4a.6.6 0 01.097 1.192L23.5 7.1h-1.4v1.4a.6.6 0 01-1.192.097L20.9 8.5V7.1h-1.4a.6.6 0 01-.097-1.192L19.5 5.9h1.4V4.5a.6.6 0 01.6-.6z" fill="#FFF" fill-rule="nonzero"/>
		</g>
	</symbol>

    <symbol id="google-assistant" width="30" height="23" viewBox="0 0 30 23">
	    <g id="GUIDE-LINE" stroke="none" stroke-width="1.5" fill="none" fill-rule="evenodd" stroke-linecap="round" stroke-linejoin="round">
	        <g id="ICON" transform="translate(-1083.000000, -847.000000)" stroke="#2f2240" stroke-width="1.5">
	            <g id="icon-assistantgoogle" transform="translate(1097.552307, 858.313598) rotate(12.000000) translate(-1097.552307, -858.313598) translate(1082.052307, 847.813598)">
	                <path d="M24.4718208,4.0283733 L27.4986854,1.10663417" id="Line-3"></path>
	                <path d="M26.3686033,9.80770938 L29.3872285,6.92318349" id="Line-3" transform="translate(27.877916, 8.365446) rotate(31.000000) translate(-27.877916, -8.365446) "></path>
	                <path d="M27.0375878,15.8076535 L30.0839323,12.947638" id="Line-3" transform="translate(28.560760, 14.377646) rotate(61.000000) translate(-28.560760, -14.377646) "></path>
	                <path d="M11.9859028,19.1614882 L8.75280985,19.1729969 C5.25333579,19.1854537 2.01160887,16.3380155 2.02427843,12.8112428 C2.03694799,9.28447003 5.29921631,6.4138799 8.79869037,6.40142303 L8.38357699,6.40290069 L12.0317833,6.38991438" id="Path" transform="translate(7.028012, 12.781476) rotate(-12.000000) translate(-7.028012, -12.781476) "></path>
	                <path d="M21.0815315,0.0284415922 L21.0061715,21.2723465 L11.5622384,16.7940063 L11.6055838,4.5749845 L21.0815315,0.0284415922 Z" id="Rectangle" transform="translate(16.320863, 10.654405) rotate(-12.000000) translate(-16.320863, -10.654405) "></path>
	            </g>
	        </g>
	    </g>
	</symbol>

    <symbol id="fotocommento" width="26" height="27" viewBox="0 0 26 27">
		<g transform="translate(1 1)" stroke="#2F2240" stroke-width="1.5" fill="none" fill-rule="evenodd">
			<circle cx="12.272" cy="10.272" r="5.272"/>
			<path d="M15.252.75c.319 0 .624.127.85.352h0l.857.857a2.702 2.702 0 001.91.791h2.203a2.17 2.17 0 011.54.638c.394.394.638.938.638 1.54h0v12.144a2.17 2.17 0 01-.638 1.54 2.17 2.17 0 01-1.54.638h0-8.769l-.09 4.027-7.196-4.053a9.008 9.008 0 01-4.267-7.66h0V4.928c0-.602.244-1.146.638-1.54a2.17 2.17 0 011.54-.638H5.22c.704 0 1.38-.274 1.884-.764h0l.92-.896c.225-.218.526-.34.839-.34h0z"/>
		</g>
	</symbol>

    <symbol id="fotocommento-add" width="29" height="31" viewBox="0 0 29 31">
		<defs>
			<circle id="a" cx="4.5" cy="4.5" r="4.5"/>
		</defs>
		<g transform="translate(1 2)" fill="none" fill-rule="evenodd">
			<circle stroke="#2F2240" stroke-width="1.5" cx="12.272" cy="13.272" r="5.272"/>
			<path d="M15.252 3.75c.319 0 .624.127.85.352h0l.857.857a2.702 2.702 0 001.91.791h2.203a2.17 2.17 0 011.54.638c.394.394.638.938.638 1.54h0v12.144a2.17 2.17 0 01-.638 1.54 2.17 2.17 0 01-1.54.638h0-8.769l-.09 4.027-7.196-4.053a9.008 9.008 0 01-4.267-7.66h0V7.928c0-.602.244-1.146.638-1.54a2.17 2.17 0 011.54-.638H5.22c.704 0 1.38-.274 1.884-.764h0l.92-.896c.225-.218.526-.34.839-.34h0z" stroke="#2F2240" stroke-width="1.5"/>
			<g transform="translate(17)">
				<use fill="#F7972E" xlink:href="#a"/>
				<circle stroke="#FFF" stroke-width="1.5" cx="4.5" cy="4.5" r="5.25"/>
				<use stroke="#F7972E" xlink:href="#a"/>
			</g>
			<path d="M21.5 1.9a.6.6 0 01.592.503l.008.097v1.4h1.4a.6.6 0 01.097 1.192L23.5 5.1h-1.4v1.4a.6.6 0 01-1.192.097L20.9 6.5V5.1h-1.4a.6.6 0 01-.097-1.192L19.5 3.9h1.4V2.5a.6.6 0 01.6-.6z" fill="#FFF" fill-rule="nonzero"/>
		</g>
	</symbol>

    <symbol id="fotocommento-orange" width="24" height="25" viewBox="0 0 24 25">
		<g id="icon_fotocommento" stroke="none" stroke-width="1" fill="none" fill-rule="evenodd">
	        <g id="icon-fotocommento" stroke="#f7972e" stroke-width="1.2">
	            <circle id="Oval-4" cx="12.2716516" cy="10.2716516" r="5.27165155"></circle>
	            <path d="M3,2.6 C1.6745166,2.6 0.6,3.6745166 0.6,5 L0.6,11.429395 C0.6,14.6847947 2.28435586,17.7084446 5.05232026,19.4219206 L11.7526296,23.569669 C11.8132567,23.6071995 11.8828139,23.6278419 11.954099,23.6294587 C12.1749561,23.634468 12.358057,23.4594888 12.3630664,23.2386317 L12.4501312,19.4 L21,19.4 C22.3254834,19.4 23.4,18.3254834 23.4,17 L23.4,4.96960449 C23.4,3.66090807 22.3390919,2.6 21.0303955,2.6 L18.8890751,2.6 C18.1996222,2.6 17.5383983,2.32615933 17.0508219,1.83870201 L16.2218473,1.00992969 C15.9593062,0.747452667 15.6032625,0.6 15.2320186,0.6 L8.88312975,0.6 C8.51871011,0.6 8.16865197,0.74209572 7.90733567,0.996094667 L7.01402019,1.86439562 C6.52871849,2.33610795 5.87861052,2.6 5.20183119,2.6 L3,2.6 Z" id="Rectangle-7-Copy-3"></path>
	        </g>
	    </g>
	</symbol>

    <symbol id="foglia-benessere-vegetariane" width="21" height="26" viewBox="0 0 21 26">
		<g stroke="#171C2A" fill="none" fill-rule="evenodd" stroke-linecap="round" stroke-linejoin="round">
			<path d="M10 9.5c.31-2.917-.005-4.494 2.666-6.552C15.412.832 18.76.885 19.128 1.098c.4.232 1.157.83.76 1.614-.677 1.344-3.32 1.709-3.32 1.709s1.02 1.32-.59 2.272c-3.074 1.82-5.749.234-5.749.234M10 10c-.277-2.532-.67-3.756-2.4-5.265-1.728-1.51-5.64-1.876-5.97-1.69-.36.2-.864.805-.51 1.485.61 1.167 2.98 1.483 2.98 1.483s-.915 1.145.529 1.972c2.758 1.579 5.01.203 5.01.203M16.5 15.5h-7M16 18H9.5M13.75 20.5H9.5M16 13H9.5"/>
			<path d="M16.99 16.237c-.19 2.754-1.757 4.152-4.187 5.508C10.272 23.158 9.975 25 9.975 25s-.27-1.761-2.566-2.998C4.97 20.688 3 18.922 3 16.228 3 12.766 6.081 10 9.891 10s7.325 2.953 7.099 6.237z"/>
		</g>
	</symbol>

	<symbol id="foglia-benessere-senza-lattosio" width="24" height="26" viewBox="0 0 24 26">
		<g fill="none" fill-rule="evenodd">
			<path d="M1.016 23.905l3.987-4.015m18.34-18.465l-3.825 3.851M12.456 24.785l-5.972-1.778V8.046l5.972 1.778zM12.76 9.49l5.971-2.117v15.27L12.76 24.76M6.49 7.835L9.496 5.21l2.965 4.328M15.04 3.674l3.579 3.53M14.615 1.39L9.93 2.896a.311.311 0 00-.21.292v1.972l5.32-1.81V1.683a.317.317 0 00-.425-.292z" stroke="#2D223C" stroke-linecap="round" stroke-linejoin="round"/>
		</g>
	</symbol>

	<symbol id="foglia-benessere-senza-glutine" width="22" height="24" viewBox="0 0 22 24">
		<g stroke="#171C2A" fill="none" fill-rule="evenodd" stroke-linecap="round">
			<path d="M20.97 2.636l-4.31 4.018M4.135 18.33l-2.846 2.653"/>
			<path d="M18.078 16.977l.12-.056-.017.125c-.021.148-.521 3.646-1.862 4.822a2.5 2.5 0 01-1.64.636c-.653 0-1.24-.28-1.53-.73-.268-.417-.255-.93.036-1.442.811-1.428 4.726-3.276 4.893-3.355zM11.036 21.774c-.29.45-.877.73-1.53.73-.589 0-1.171-.225-1.641-.636-1.341-1.176-1.84-4.674-1.861-4.822l-.017-.125.12.056c.166.079 4.082 1.927 4.892 3.355.292.513.304 1.026.037 1.442zM6.004 10.398l-.017-.125.12.057c.166.078 4.082 1.926 4.892 3.354.292.514.304 1.026.037 1.443-.29.45-.876.73-1.53.73a2.507 2.507 0 01-1.641-.636c-1.341-1.177-1.84-4.674-1.861-4.823zM12.04 2.042l.061-.094.061.094c.118.183 2.874 4.493 2.447 6.588-.27 1.325-1.454 1.919-2.508 1.919-1.056 0-2.239-.594-2.508-1.919-.428-2.095 2.33-6.405 2.448-6.588zM18.078 10.33l.12-.057-.017.125c-.021.149-.521 3.647-1.862 4.823-.469.41-1.05.636-1.64.636-.653 0-1.24-.28-1.53-.73-.268-.418-.255-.93.036-1.443.811-1.428 4.726-3.276 4.893-3.354z" stroke-linejoin="round"/>
		</g>
	</symbol>

	<symbol id="foglia-benessere-basso-nichel" width="23" height="22" viewBox="0 0 23 22">
		<g stroke="#171C2A" fill="none" fill-rule="evenodd" stroke-linecap="round" stroke-linejoin="round">
			<path d="M15.482 1H7.518c-.906 0-1.743.501-2.197 1.315L1.34 9.463a2.713 2.713 0 000 2.63L5.32 19.24a2.522 2.522 0 002.197 1.315h7.964a2.52 2.52 0 002.196-1.315l3.982-7.149a2.712 2.712 0 000-2.629l-3.982-7.148A2.52 2.52 0 0015.482 1z"/><path d="M7.125 14.333v-8l5.25 8v-8M15.438 14.778V9M15.438 7.222v-.889"/>
		</g>
	</symbol>

	<symbol id="foglia-benessere-light" width="24" height="23" viewBox="0 0 24 23">
		<g stroke="#171C2A" fill="none" fill-rule="evenodd" stroke-linecap="round" stroke-linejoin="round">
			<path d="M18.302 8.633s1.095.345 1.769 1.318c.653.944.775 1.735.775 1.735M10.16 2.801s1.141.366 1.932 1.555c.767 1.153 1.028 1.731 1.028 1.731s-.388-2.58 1.296-3.901C15.779 1.116 18.302 1 18.302 1s-.16 1.918-.917 3.092c-1.373 2.13-4.265 1.995-4.265 1.995M4.016 14.358h9.637v4.961H3.04c-.884 0-1.6-.717-1.6-1.603v-5.012"/>
			<path d="M3.98 14.367h-.873c-1.07 0-1.672-.738-1.672-1.562 0-.823.514-1.491 1.148-1.491H3.98M5.071 17.793v-2.036M8.124 17.793v-2.036M11.177 17.793v-2.036M4.054 12.936v-.16c0-2.672 1.115-4.796 2.648-5.612 2.529-1.346 4.365.137 6.46.137 2.093 0 4.368-1.321 6.827-.342 1.984.79 2.892 3.144 2.892 5.817 0 5.179-2.684 7.767-5.136 9.286-1.33.824-2.9-.251-4.583-.251-1.683 0-3.254 1.075-4.584.25-1.005-.622-1.945-1.431-2.706-2.523"/>
		</g>
	</symbol>

    <symbol id="foglia-benessere-vegetariane-green" width="25" height="26" viewBox="0 0 25 26">
	    <g id="icon_foglia_vegetariana" stroke="none" stroke-width="1" fill="none" fill-rule="evenodd">
	        <g id="icon-vegetariano_small_green">
	            <circle id="Oval" fill="#E5F3C8" cx="8" cy="8" r="8"></circle>
	            <g id="Vegetariano" transform="translate(5.000000, 1.000000)" stroke="#171C2A" stroke-linecap="round" stroke-linejoin="round">
	                <path d="M9,8.5 C9.30905843,5.58313036 8.99504844,4.00607665 11.6656302,1.94814611 C14.4124389,-0.168239261 17.7596285,-0.114588932 18.1279326,0.0986777991 C18.5279349,0.330361808 19.2845432,0.928256023 18.8886918,1.71219143 C18.2105746,3.05611883 15.5682948,3.42072754 15.5682948,3.42072754 C15.5682948,3.42072754 16.5875461,4.74009857 14.97848,5.69272555 C11.9037449,7.51256607 9.22938944,5.9265449 9.22938944,5.9265449" id="Stroke-3"></path>
	                <path d="M9,9 C8.72274905,6.46846596 8.32928421,5.24435932 6.60048506,3.7350592 C4.8716859,2.22575907 0.959710401,1.85902634 0.629573437,2.04408 C0.270589554,2.24503456 -0.233830881,2.84981733 0.120745835,3.52999233 C0.729335699,4.69651576 3.09959089,5.01288897 3.09959089,5.01288897 C3.09959089,5.01288897 2.18530381,6.15802842 3.62885173,6.98487558 C6.38693773,8.56400013 8.63931628,7.18774922 8.63931628,7.18774922" id="Stroke-5"></path>
	                <path d="M15.5,14.5 L8.5,14.5" id="Stroke-9"></path>
	                <path d="M15,17 L8.5,17" id="Stroke-11"></path>
	                <path d="M12.75,20 L8.5,20" id="Stroke-13"></path>
	                <path d="M15,12 L8.5,12" id="Stroke-17"></path>
	                <path d="M15.9896101,15.2371926 C15.7994801,17.9910018 14.2332838,19.3886023 11.8031842,20.745171 C9.27168193,22.1575285 8.97499984,24 8.97499984,24 C8.97499984,24 8.70564895,22.2388722 6.40903647,21.0017996 C3.97022257,19.6880624 2,17.9211758 2,15.2281944 C2,11.7656869 5.08129501,9 8.89142184,9 C12.7019448,9 16.2161817,11.9528494 15.9896101,15.2371926 Z" id="Stroke-7"></path>
	            </g>
	        </g>
	    </g>
	</symbol>

	<symbol id="foglia-benessere-senza-lattosio-green" width="24" height="26" viewBox="0 0 24 26">
	    <g id="icon_foglia_senzalattosio" stroke="none" stroke-width="1" fill="none" fill-rule="evenodd">
	        <g id="icon-senzalattosio_small_green" transform="translate(1.000000, 0.000000)">
	            <g id="icon-senzalattosio">
	                <circle id="Oval" fill="#E5F3C8" cx="8" cy="8" r="8"></circle>
	                <g id="SenzaLattosio" transform="translate(0.000000, 1.000000)" stroke="#171C2A" stroke-linecap="round" stroke-linejoin="round">
	                    <g id="Group-3">
	                        <path d="M3.63615954,19.2598883 L0.514693561,22.4027831 L0.0163642702,22.9045334 M22.3423155,0.425314772 L18.5926011,4.20077095" id="Shape"></path>
	                    </g>
	                    <polygon id="Stroke-4" points="11.4558622 23.7851414 5.48443359 22.0074744 5.48443359 7.046011 11.4558622 8.82393982"></polygon>
	                    <polyline id="Stroke-5" points="11.76 8.49011376 17.7314286 6.37323675 17.7314286 21.6437708 11.76 23.7603806"></polyline>
	                    <polyline id="Stroke-6" points="5.49 6.83526017 8.49582176 4.20930233 11.4614286 8.53717118"></polyline>
	                    <path d="M14.04,2.6744186 L17.6189209,6.20410156" id="Stroke-7"></path>
	                    <path d="M13.6151236,0.390565444 L8.93011222,1.8946449 C8.80425164,1.9388751 8.72,2.05589556 8.72,2.18681695 L8.72,4.15897827 L14.04,2.34907859 L14.04,0.682990235 C14.04,0.468157847 13.8218761,0.31802792 13.6151236,0.390565444 Z" id="Stroke-8"></path>
	                </g>
	            </g>
	        </g>
	    </g>
	</symbol>

	<symbol id="foglia-benessere-senza-glutine-green" width="22" height="22" viewBox="0 0 22 22">
	    <g id="icon_foglia_senzaglutine" stroke="none" stroke-width="1" fill="none" fill-rule="evenodd">
	        <g id="icon-senzaglutine_small_green" transform="translate(1.000000, 0.000000)">
	            <circle id="Oval" fill="#E5F3C8" cx="9" cy="8" r="8"></circle>
	            <g id="Group-5" transform="translate(0.000000, 1.000000)" stroke="#171C2A" stroke-linecap="round">
	                <path d="M19.9701837,0.636363636 L16.4086849,3.95627697 M3.75942827,15.7475023 L0.288856305,18.9826566" id="Shape"></path>
	            </g>
	            <path d="M18.0775715,15.9772608 L18.1976304,15.9210526 L18.1808275,16.0461286 C18.1599595,16.1939916 17.6599403,19.6920666 16.3186964,20.8678816 C15.8503858,21.2777965 15.2685206,21.5038953 14.6798801,21.5038953 C14.0261965,21.5038953 13.4397241,21.2243734 13.1491981,20.7736949 C12.8806241,20.3574503 12.8941747,19.8447403 13.1852428,19.3322834 C13.9963851,17.904291 17.9106275,16.056003 18.0775715,15.9772608 Z" id="Path" stroke="#171C2A" stroke-linecap="round" stroke-linejoin="round"></path>
	            <path d="M11.0358764,20.7742013 C10.7450793,21.2243734 10.1591489,21.5038953 9.5054653,21.5038953 C8.91709583,21.5038953 8.33468864,21.278556 7.8647519,20.8678816 C6.52377901,19.6920666 6.02457285,16.1939916 6.00397586,16.0461286 L5.98663102,15.9210526 L6.10777388,15.9772608 C6.27309188,16.056003 10.1892314,17.904291 10.9992896,19.3322834 C11.2911707,19.8454998 11.3030953,20.3579567 11.0358764,20.7742013 Z" id="Path" stroke="#171C2A" stroke-linecap="round" stroke-linejoin="round"></path>
	            <path d="M6.00397586,9.3978032 L5.98663102,9.27272727 L6.10777388,9.32994824 C6.27309188,9.40767762 10.1892314,11.2562188 10.9992896,12.6839581 C11.2911707,13.1976809 11.3030953,13.7096313 11.0358764,14.1273951 C10.7450793,14.5770608 10.159691,14.8565827 9.50600732,14.8565827 C8.91709583,14.8565827 8.33468864,14.6307371 7.8647519,14.220569 C6.52377901,13.0437413 6.02457285,9.54667901 6.00397586,9.3978032 Z" id="Path" stroke="#171C2A" stroke-linecap="round" stroke-linejoin="round"></path>
	            <path d="M12.040632,1.04247061 L12.1010679,0.948030686 L12.1623169,1.04247061 C12.2796655,1.22527389 15.0355979,5.53482331 14.6090233,7.63047812 C14.3388232,8.95542214 13.1547669,9.54864664 12.1005259,9.54864664 C11.0454718,9.54864664 9.86195753,8.95542214 9.5925705,7.63047812 C9.1649118,5.53482331 11.9221992,1.22527389 12.040632,1.04247061 Z" id="Path" stroke="#171C2A" stroke-linecap="round" stroke-linejoin="round"></path>
	            <path d="M18.0775715,9.32994824 L18.1976304,9.27272727 L18.1808275,9.3978032 C18.1599595,9.54667901 17.6599403,13.0445008 16.3186964,14.220569 C15.8503858,14.6307371 15.2685206,14.8565827 14.6793381,14.8565827 C14.0261965,14.8565827 13.4397241,14.5765544 13.1491981,14.1263823 C12.8806241,13.709125 12.8941747,13.1971745 13.1852428,12.6839581 C13.9963851,11.2562188 17.9106275,9.40767762 18.0775715,9.32994824 Z" id="Path" stroke="#171C2A" stroke-linecap="round" stroke-linejoin="round"></path>
	        </g>
	    </g>
	</symbol>

	<symbol id="foglia-benessere-basso-nichel-green" width="25" height="22" viewBox="0 0 25 22">
	    <g id="icon_foglia_nickel" stroke="none" stroke-width="1" fill="none" fill-rule="evenodd">
	        <g id="icon-bassonickel_small_green">
	            <circle id="Oval" fill="#E5F3C8" cx="8" cy="8" r="8"></circle>
	            <g id="BassoNickel" transform="translate(3.000000, 2.000000)" stroke="#171C2A" stroke-linecap="round" stroke-linejoin="round">
	                <path d="M14.4815321,0 L6.51825059,0 C5.61212705,0 4.77467995,0.501008612 4.32147329,1.31469706 L0.339687665,8.46338108 C-0.113229222,9.27676917 -0.113229222,10.2790868 0.339687665,11.0924748 L4.32147329,18.2408585 C4.77467995,19.0545469 5.61212705,19.5555556 6.51825059,19.5555556 L14.4815321,19.5555556 C15.3879454,19.5555556 16.2253925,19.0545469 16.6783094,18.2408585 L20.660095,11.0924748 C21.1133017,10.2790868 21.1133017,9.27676917 20.660095,8.46338108 L16.6783094,1.31469706 C16.2253925,0.501008612 15.3879454,0 14.4815321,0 Z" id="Stroke-1"></path>
	                <polyline id="Stroke-3" points="6.125 13.3333333 6.125 5.33333333 11.375 13.3333333 11.375 5.33333333"></polyline>
	                <path d="M14.4375,13.7777778 L14.4375,8" id="Stroke-5"></path>
	                <path d="M14.4375,6.22222222 L14.4375,5.33333333" id="Stroke-7"></path>
	            </g>
	        </g>
	    </g>
	</symbol>

	<symbol id="foglia-benessere-light-green" width="20" height="21" viewBox="0 0 20 21">
	    <g id="icon_foglia_light" stroke="none" stroke-width="1" fill="none" fill-rule="evenodd">
	        <g id="Leggero">
	            <circle id="Oval" fill="#E5F3C8" cx="8" cy="8" r="8"></circle>
	            <path d="M15,8.61764706 C15,8.61764706 15.949998,8.91643039 16.5338819,9.76029143 C17.1005578,10.5791193 17.2058824,11.2647059 17.2058824,11.2647059" id="Stroke-5" stroke="#171C2A" stroke-linecap="round" stroke-linejoin="round"></path>
	            <path d="M7.94117647,3.56141273 C7.94117647,3.56141273 8.93087757,3.87866137 9.61622741,4.90938924 C10.2811566,5.90947528 10.5077417,6.41031077 10.5077417,6.41031077 C10.5077417,6.41031077 10.1712209,4.17292863 11.6311559,3.02782218 C12.812755,2.10117088 15,2 15,2 C15,2 14.8615314,3.66311192 14.2055537,4.68063211 C13.0147234,6.52653841 10.5077417,6.41031077 10.5077417,6.41031077" id="Stroke-7" stroke="#171C2A" stroke-linecap="round" stroke-linejoin="round"></path>
	            <path d="M2.67435464,13.5808824 L11.0294118,13.5808824 L11.0294118,17.8823529 L1.82823529,17.8823529 C1.06216216,17.8823529 0.441176471,17.2600735 0.441176471,16.4926912 L0.441176471,12.1470588" id="Stroke-9" stroke="#171C2A" stroke-linecap="round" stroke-linejoin="round"></path>
	            <path d="M2.58329504,13.5889605 L1.82703467,13.5889605 L1.3721362,13.5280948 C0.822807995,13.5280948 0.377412684,12.9492285 0.377412684,12.2349983 C0.377412684,11.5210536 0.822807995,10.9419017 1.3721362,10.9419017 L2.58329504,10.9419017" id="Stroke-11" stroke="#171C2A" stroke-linecap="round" stroke-linejoin="round"></path>
	            <path d="M3.52941176,16.5588235 L3.52941176,14.7941176" id="Stroke-13" stroke="#171C2A" stroke-linecap="round" stroke-linejoin="round"></path>
	            <path d="M6.17647059,16.5588235 L6.17647059,14.7941176" id="Stroke-15" stroke="#171C2A" stroke-linecap="round" stroke-linejoin="round"></path>
	            <path d="M8.82352941,16.5588235 L8.82352941,14.7941176" id="Stroke-17" stroke="#171C2A" stroke-linecap="round" stroke-linejoin="round"></path>
	            <path d="M2.64790397,12.3482246 C2.64734054,12.3020946 2.64705882,12.2559646 2.64705882,12.209555 C2.64705882,9.89326851 3.61447508,8.05142237 4.94305255,7.3440953 C7.13565614,6.17686585 8.72820246,7.46263549 10.5438687,7.46263549 C12.358408,7.46263549 14.3307089,6.31749254 16.4633067,7.16600545 C18.1834709,7.85040729 18.9705882,9.89215021 18.9705882,12.209555 C18.9705882,16.6995442 16.6436056,18.9428613 14.517769,20.2599435 C13.3649829,20.97426 12.0028811,20.0424334 10.5438687,20.0424334 C9.08485621,20.0424334 7.72275441,20.97426 6.56968664,20.2599435 C5.69889932,19.720362 4.88332854,19.0183468 4.22354728,18.0719824" id="Stroke-3" stroke="#171C2A" stroke-linecap="round" stroke-linejoin="round"></path>
	        </g>
	    </g>
	</symbol>

	<symbol id="foglia-benessere-vegetariane-white-green" width="25" height="26" viewBox="0 0 25 26">
	    <g id="icon_foglia_vegetariana" stroke="none" stroke-width="1" fill="none" fill-rule="evenodd">
	        <g id="icon-vegetariano_small_green">
	            <circle id="Oval" fill="#6b8f37" cx="8" cy="8" r="8"></circle>
	            <g id="Vegetariano" transform="translate(5.000000, 1.000000)" stroke="#FFFFFF" stroke-linecap="round" stroke-linejoin="round">
	                <path d="M9,8.5 C9.30905843,5.58313036 8.99504844,4.00607665 11.6656302,1.94814611 C14.4124389,-0.168239261 17.7596285,-0.114588932 18.1279326,0.0986777991 C18.5279349,0.330361808 19.2845432,0.928256023 18.8886918,1.71219143 C18.2105746,3.05611883 15.5682948,3.42072754 15.5682948,3.42072754 C15.5682948,3.42072754 16.5875461,4.74009857 14.97848,5.69272555 C11.9037449,7.51256607 9.22938944,5.9265449 9.22938944,5.9265449" id="Stroke-3"></path>
	                <path d="M9,9 C8.72274905,6.46846596 8.32928421,5.24435932 6.60048506,3.7350592 C4.8716859,2.22575907 0.959710401,1.85902634 0.629573437,2.04408 C0.270589554,2.24503456 -0.233830881,2.84981733 0.120745835,3.52999233 C0.729335699,4.69651576 3.09959089,5.01288897 3.09959089,5.01288897 C3.09959089,5.01288897 2.18530381,6.15802842 3.62885173,6.98487558 C6.38693773,8.56400013 8.63931628,7.18774922 8.63931628,7.18774922" id="Stroke-5"></path>
	                <path d="M15.5,14.5 L8.5,14.5" id="Stroke-9"></path>
	                <path d="M15,17 L8.5,17" id="Stroke-11"></path>
	                <path d="M12.75,20 L8.5,20" id="Stroke-13"></path>
	                <path d="M15,12 L8.5,12" id="Stroke-17"></path>
	                <path d="M15.9896101,15.2371926 C15.7994801,17.9910018 14.2332838,19.3886023 11.8031842,20.745171 C9.27168193,22.1575285 8.97499984,24 8.97499984,24 C8.97499984,24 8.70564895,22.2388722 6.40903647,21.0017996 C3.97022257,19.6880624 2,17.9211758 2,15.2281944 C2,11.7656869 5.08129501,9 8.89142184,9 C12.7019448,9 16.2161817,11.9528494 15.9896101,15.2371926 Z" id="Stroke-7"></path>
	            </g>
	        </g>
	    </g>
	</symbol>

	<symbol id="foglia-benessere-senza-lattosio-white-green" width="24" height="26" viewBox="0 0 24 26">
	    <g id="icon_foglia_senzalattosio" stroke="none" stroke-width="1" fill="none" fill-rule="evenodd">
	        <g id="icon-senzalattosio_small_green" transform="translate(1.000000, 0.000000)">
	            <g id="icon-senzalattosio">
	                <circle id="Oval" fill="#6b8f37" cx="8" cy="8" r="8"></circle>
	                <g id="SenzaLattosio" transform="translate(0.000000, 1.000000)" stroke="#FFFFFF" stroke-linecap="round" stroke-linejoin="round">
	                    <g id="Group-3">
	                        <path d="M3.63615954,19.2598883 L0.514693561,22.4027831 L0.0163642702,22.9045334 M22.3423155,0.425314772 L18.5926011,4.20077095" id="Shape"></path>
	                    </g>
	                    <polygon id="Stroke-4" points="11.4558622 23.7851414 5.48443359 22.0074744 5.48443359 7.046011 11.4558622 8.82393982"></polygon>
	                    <polyline id="Stroke-5" points="11.76 8.49011376 17.7314286 6.37323675 17.7314286 21.6437708 11.76 23.7603806"></polyline>
	                    <polyline id="Stroke-6" points="5.49 6.83526017 8.49582176 4.20930233 11.4614286 8.53717118"></polyline>
	                    <path d="M14.04,2.6744186 L17.6189209,6.20410156" id="Stroke-7"></path>
	                    <path d="M13.6151236,0.390565444 L8.93011222,1.8946449 C8.80425164,1.9388751 8.72,2.05589556 8.72,2.18681695 L8.72,4.15897827 L14.04,2.34907859 L14.04,0.682990235 C14.04,0.468157847 13.8218761,0.31802792 13.6151236,0.390565444 Z" id="Stroke-8"></path>
	                </g>
	            </g>
	        </g>
	    </g>
	</symbol>

	<symbol id="foglia-benessere-senza-glutine-white-green" width="22" height="22" viewBox="0 0 22 22">
	    <g id="icon_foglia_senzaglutine" stroke="none" stroke-width="1" fill="none" fill-rule="evenodd">
	        <g id="icon-senzaglutine_small_green" transform="translate(1.000000, 0.000000)">
	            <circle id="Oval" fill="#6b8f37" cx="9" cy="8" r="8"></circle>
	            <g id="Group-5" transform="translate(0.000000, 1.000000)" stroke="#FFFFFF" stroke-linecap="round">
	                <path d="M19.9701837,0.636363636 L16.4086849,3.95627697 M3.75942827,15.7475023 L0.288856305,18.9826566" id="Shape"></path>
	            </g>
	            <path d="M18.0775715,15.9772608 L18.1976304,15.9210526 L18.1808275,16.0461286 C18.1599595,16.1939916 17.6599403,19.6920666 16.3186964,20.8678816 C15.8503858,21.2777965 15.2685206,21.5038953 14.6798801,21.5038953 C14.0261965,21.5038953 13.4397241,21.2243734 13.1491981,20.7736949 C12.8806241,20.3574503 12.8941747,19.8447403 13.1852428,19.3322834 C13.9963851,17.904291 17.9106275,16.056003 18.0775715,15.9772608 Z" id="Path" stroke="#FFFFFF" stroke-linecap="round" stroke-linejoin="round"></path>
	            <path d="M11.0358764,20.7742013 C10.7450793,21.2243734 10.1591489,21.5038953 9.5054653,21.5038953 C8.91709583,21.5038953 8.33468864,21.278556 7.8647519,20.8678816 C6.52377901,19.6920666 6.02457285,16.1939916 6.00397586,16.0461286 L5.98663102,15.9210526 L6.10777388,15.9772608 C6.27309188,16.056003 10.1892314,17.904291 10.9992896,19.3322834 C11.2911707,19.8454998 11.3030953,20.3579567 11.0358764,20.7742013 Z" id="Path" stroke="#FFFFFF" stroke-linecap="round" stroke-linejoin="round"></path>
	            <path d="M6.00397586,9.3978032 L5.98663102,9.27272727 L6.10777388,9.32994824 C6.27309188,9.40767762 10.1892314,11.2562188 10.9992896,12.6839581 C11.2911707,13.1976809 11.3030953,13.7096313 11.0358764,14.1273951 C10.7450793,14.5770608 10.159691,14.8565827 9.50600732,14.8565827 C8.91709583,14.8565827 8.33468864,14.6307371 7.8647519,14.220569 C6.52377901,13.0437413 6.02457285,9.54667901 6.00397586,9.3978032 Z" id="Path" stroke="#FFFFFF" stroke-linecap="round" stroke-linejoin="round"></path>
	            <path d="M12.040632,1.04247061 L12.1010679,0.948030686 L12.1623169,1.04247061 C12.2796655,1.22527389 15.0355979,5.53482331 14.6090233,7.63047812 C14.3388232,8.95542214 13.1547669,9.54864664 12.1005259,9.54864664 C11.0454718,9.54864664 9.86195753,8.95542214 9.5925705,7.63047812 C9.1649118,5.53482331 11.9221992,1.22527389 12.040632,1.04247061 Z" id="Path" stroke="#FFFFFF" stroke-linecap="round" stroke-linejoin="round"></path>
	            <path d="M18.0775715,9.32994824 L18.1976304,9.27272727 L18.1808275,9.3978032 C18.1599595,9.54667901 17.6599403,13.0445008 16.3186964,14.220569 C15.8503858,14.6307371 15.2685206,14.8565827 14.6793381,14.8565827 C14.0261965,14.8565827 13.4397241,14.5765544 13.1491981,14.1263823 C12.8806241,13.709125 12.8941747,13.1971745 13.1852428,12.6839581 C13.9963851,11.2562188 17.9106275,9.40767762 18.0775715,9.32994824 Z" id="Path" stroke="#FFFFFF" stroke-linecap="round" stroke-linejoin="round"></path>
	        </g>
	    </g>
	</symbol>

	<symbol id="foglia-benessere-basso-nichel-white-green" width="25" height="22" viewBox="0 0 25 22">
	    <g id="icon_foglia_nickel" stroke="none" stroke-width="1" fill="none" fill-rule="evenodd">
	        <g id="icon-bassonickel_small_green">
	            <circle id="Oval" fill="#6b8f37" cx="8" cy="8" r="8"></circle>
	            <g id="BassoNickel" transform="translate(3.000000, 2.000000)" stroke="#FFFFFF" stroke-linecap="round" stroke-linejoin="round">
	                <path d="M14.4815321,0 L6.51825059,0 C5.61212705,0 4.77467995,0.501008612 4.32147329,1.31469706 L0.339687665,8.46338108 C-0.113229222,9.27676917 -0.113229222,10.2790868 0.339687665,11.0924748 L4.32147329,18.2408585 C4.77467995,19.0545469 5.61212705,19.5555556 6.51825059,19.5555556 L14.4815321,19.5555556 C15.3879454,19.5555556 16.2253925,19.0545469 16.6783094,18.2408585 L20.660095,11.0924748 C21.1133017,10.2790868 21.1133017,9.27676917 20.660095,8.46338108 L16.6783094,1.31469706 C16.2253925,0.501008612 15.3879454,0 14.4815321,0 Z" id="Stroke-1"></path>
	                <polyline id="Stroke-3" points="6.125 13.3333333 6.125 5.33333333 11.375 13.3333333 11.375 5.33333333"></polyline>
	                <path d="M14.4375,13.7777778 L14.4375,8" id="Stroke-5"></path>
	                <path d="M14.4375,6.22222222 L14.4375,5.33333333" id="Stroke-7"></path>
	            </g>
	        </g>
	    </g>
	</symbol>

	<symbol id="foglia-benessere-light-white-green" width="20" height="21" viewBox="0 0 20 21">
	    <g id="icon_foglia_light" stroke="none" stroke-width="1" fill="none" fill-rule="evenodd">
	        <g id="Leggero">
	            <circle id="Oval" fill="#6b8f37" cx="8" cy="8" r="8"></circle>
	            <path d="M15,8.61764706 C15,8.61764706 15.949998,8.91643039 16.5338819,9.76029143 C17.1005578,10.5791193 17.2058824,11.2647059 17.2058824,11.2647059" id="Stroke-5" stroke="#FFFFFF" stroke-linecap="round" stroke-linejoin="round"></path>
	            <path d="M7.94117647,3.56141273 C7.94117647,3.56141273 8.93087757,3.87866137 9.61622741,4.90938924 C10.2811566,5.90947528 10.5077417,6.41031077 10.5077417,6.41031077 C10.5077417,6.41031077 10.1712209,4.17292863 11.6311559,3.02782218 C12.812755,2.10117088 15,2 15,2 C15,2 14.8615314,3.66311192 14.2055537,4.68063211 C13.0147234,6.52653841 10.5077417,6.41031077 10.5077417,6.41031077" id="Stroke-7" stroke="#FFFFFF" stroke-linecap="round" stroke-linejoin="round"></path>
	            <path d="M2.67435464,13.5808824 L11.0294118,13.5808824 L11.0294118,17.8823529 L1.82823529,17.8823529 C1.06216216,17.8823529 0.441176471,17.2600735 0.441176471,16.4926912 L0.441176471,12.1470588" id="Stroke-9" stroke="#FFFFFF" stroke-linecap="round" stroke-linejoin="round"></path>
	            <path d="M2.58329504,13.5889605 L1.82703467,13.5889605 L1.3721362,13.5280948 C0.822807995,13.5280948 0.377412684,12.9492285 0.377412684,12.2349983 C0.377412684,11.5210536 0.822807995,10.9419017 1.3721362,10.9419017 L2.58329504,10.9419017" id="Stroke-11" stroke="#FFFFFF" stroke-linecap="round" stroke-linejoin="round"></path>
	            <path d="M3.52941176,16.5588235 L3.52941176,14.7941176" id="Stroke-13" stroke="#FFFFFF" stroke-linecap="round" stroke-linejoin="round"></path>
	            <path d="M6.17647059,16.5588235 L6.17647059,14.7941176" id="Stroke-15" stroke="#FFFFFF" stroke-linecap="round" stroke-linejoin="round"></path>
	            <path d="M8.82352941,16.5588235 L8.82352941,14.7941176" id="Stroke-17" stroke="#FFFFFF" stroke-linecap="round" stroke-linejoin="round"></path>
	            <path d="M2.64790397,12.3482246 C2.64734054,12.3020946 2.64705882,12.2559646 2.64705882,12.209555 C2.64705882,9.89326851 3.61447508,8.05142237 4.94305255,7.3440953 C7.13565614,6.17686585 8.72820246,7.46263549 10.5438687,7.46263549 C12.358408,7.46263549 14.3307089,6.31749254 16.4633067,7.16600545 C18.1834709,7.85040729 18.9705882,9.89215021 18.9705882,12.209555 C18.9705882,16.6995442 16.6436056,18.9428613 14.517769,20.2599435 C13.3649829,20.97426 12.0028811,20.0424334 10.5438687,20.0424334 C9.08485621,20.0424334 7.72275441,20.97426 6.56968664,20.2599435 C5.69889932,19.720362 4.88332854,19.0183468 4.22354728,18.0719824" id="Stroke-3" stroke="#FFFFFF" stroke-linecap="round" stroke-linejoin="round"></path>
	        </g>
	    </g>
	</symbol>

	<symbol id="foglia-benessere-vegetariane-white" width="25" height="26" viewBox="0 0 25 26">
	    <g id="icon_foglia_vegetariana" stroke="none" stroke-width="1" fill="none" fill-rule="evenodd">
	        <g id="icon-vegetariano_small_green">
	            <circle id="Oval" fill="#b87632" cx="8" cy="8" r="8"></circle>
	            <g id="Vegetariano" transform="translate(5.000000, 1.000000)" stroke="#FFFFFF" stroke-linecap="round" stroke-linejoin="round">
	                <path d="M9,8.5 C9.30905843,5.58313036 8.99504844,4.00607665 11.6656302,1.94814611 C14.4124389,-0.168239261 17.7596285,-0.114588932 18.1279326,0.0986777991 C18.5279349,0.330361808 19.2845432,0.928256023 18.8886918,1.71219143 C18.2105746,3.05611883 15.5682948,3.42072754 15.5682948,3.42072754 C15.5682948,3.42072754 16.5875461,4.74009857 14.97848,5.69272555 C11.9037449,7.51256607 9.22938944,5.9265449 9.22938944,5.9265449" id="Stroke-3"></path>
	                <path d="M9,9 C8.72274905,6.46846596 8.32928421,5.24435932 6.60048506,3.7350592 C4.8716859,2.22575907 0.959710401,1.85902634 0.629573437,2.04408 C0.270589554,2.24503456 -0.233830881,2.84981733 0.120745835,3.52999233 C0.729335699,4.69651576 3.09959089,5.01288897 3.09959089,5.01288897 C3.09959089,5.01288897 2.18530381,6.15802842 3.62885173,6.98487558 C6.38693773,8.56400013 8.63931628,7.18774922 8.63931628,7.18774922" id="Stroke-5"></path>
	                <path d="M15.5,14.5 L8.5,14.5" id="Stroke-9"></path>
	                <path d="M15,17 L8.5,17" id="Stroke-11"></path>
	                <path d="M12.75,20 L8.5,20" id="Stroke-13"></path>
	                <path d="M15,12 L8.5,12" id="Stroke-17"></path>
	                <path d="M15.9896101,15.2371926 C15.7994801,17.9910018 14.2332838,19.3886023 11.8031842,20.745171 C9.27168193,22.1575285 8.97499984,24 8.97499984,24 C8.97499984,24 8.70564895,22.2388722 6.40903647,21.0017996 C3.97022257,19.6880624 2,17.9211758 2,15.2281944 C2,11.7656869 5.08129501,9 8.89142184,9 C12.7019448,9 16.2161817,11.9528494 15.9896101,15.2371926 Z" id="Stroke-7"></path>
	            </g>
	        </g>
	    </g>
	</symbol>

	<symbol id="foglia-benessere-senza-lattosio-white" width="24" height="26" viewBox="0 0 24 26">
	    <g id="icon_foglia_senzalattosio" stroke="none" stroke-width="1" fill="none" fill-rule="evenodd">
	        <g id="icon-senzalattosio_small_green" transform="translate(1.000000, 0.000000)">
	            <g id="icon-senzalattosio">
	                <circle id="Oval" fill="#b87632" cx="8" cy="8" r="8"></circle>
	                <g id="SenzaLattosio" transform="translate(0.000000, 1.000000)" stroke="#FFFFFF" stroke-linecap="round" stroke-linejoin="round">
	                    <g id="Group-3">
	                        <path d="M3.63615954,19.2598883 L0.514693561,22.4027831 L0.0163642702,22.9045334 M22.3423155,0.425314772 L18.5926011,4.20077095" id="Shape"></path>
	                    </g>
	                    <polygon id="Stroke-4" points="11.4558622 23.7851414 5.48443359 22.0074744 5.48443359 7.046011 11.4558622 8.82393982"></polygon>
	                    <polyline id="Stroke-5" points="11.76 8.49011376 17.7314286 6.37323675 17.7314286 21.6437708 11.76 23.7603806"></polyline>
	                    <polyline id="Stroke-6" points="5.49 6.83526017 8.49582176 4.20930233 11.4614286 8.53717118"></polyline>
	                    <path d="M14.04,2.6744186 L17.6189209,6.20410156" id="Stroke-7"></path>
	                    <path d="M13.6151236,0.390565444 L8.93011222,1.8946449 C8.80425164,1.9388751 8.72,2.05589556 8.72,2.18681695 L8.72,4.15897827 L14.04,2.34907859 L14.04,0.682990235 C14.04,0.468157847 13.8218761,0.31802792 13.6151236,0.390565444 Z" id="Stroke-8"></path>
	                </g>
	            </g>
	        </g>
	    </g>
	</symbol>

	<symbol id="foglia-benessere-senza-glutine-white" width="22" height="22" viewBox="0 0 22 22">
	    <g id="icon_foglia_senzaglutine" stroke="none" stroke-width="1" fill="none" fill-rule="evenodd">
	        <g id="icon-senzaglutine_small_green" transform="translate(1.000000, 0.000000)">
	            <circle id="Oval" fill="#b87632" cx="9" cy="8" r="8"></circle>
	            <g id="Group-5" transform="translate(0.000000, 1.000000)" stroke="#FFFFFF" stroke-linecap="round">
	                <path d="M19.9701837,0.636363636 L16.4086849,3.95627697 M3.75942827,15.7475023 L0.288856305,18.9826566" id="Shape"></path>
	            </g>
	            <path d="M18.0775715,15.9772608 L18.1976304,15.9210526 L18.1808275,16.0461286 C18.1599595,16.1939916 17.6599403,19.6920666 16.3186964,20.8678816 C15.8503858,21.2777965 15.2685206,21.5038953 14.6798801,21.5038953 C14.0261965,21.5038953 13.4397241,21.2243734 13.1491981,20.7736949 C12.8806241,20.3574503 12.8941747,19.8447403 13.1852428,19.3322834 C13.9963851,17.904291 17.9106275,16.056003 18.0775715,15.9772608 Z" id="Path" stroke="#FFFFFF" stroke-linecap="round" stroke-linejoin="round"></path>
	            <path d="M11.0358764,20.7742013 C10.7450793,21.2243734 10.1591489,21.5038953 9.5054653,21.5038953 C8.91709583,21.5038953 8.33468864,21.278556 7.8647519,20.8678816 C6.52377901,19.6920666 6.02457285,16.1939916 6.00397586,16.0461286 L5.98663102,15.9210526 L6.10777388,15.9772608 C6.27309188,16.056003 10.1892314,17.904291 10.9992896,19.3322834 C11.2911707,19.8454998 11.3030953,20.3579567 11.0358764,20.7742013 Z" id="Path" stroke="#FFFFFF" stroke-linecap="round" stroke-linejoin="round"></path>
	            <path d="M6.00397586,9.3978032 L5.98663102,9.27272727 L6.10777388,9.32994824 C6.27309188,9.40767762 10.1892314,11.2562188 10.9992896,12.6839581 C11.2911707,13.1976809 11.3030953,13.7096313 11.0358764,14.1273951 C10.7450793,14.5770608 10.159691,14.8565827 9.50600732,14.8565827 C8.91709583,14.8565827 8.33468864,14.6307371 7.8647519,14.220569 C6.52377901,13.0437413 6.02457285,9.54667901 6.00397586,9.3978032 Z" id="Path" stroke="#FFFFFF" stroke-linecap="round" stroke-linejoin="round"></path>
	            <path d="M12.040632,1.04247061 L12.1010679,0.948030686 L12.1623169,1.04247061 C12.2796655,1.22527389 15.0355979,5.53482331 14.6090233,7.63047812 C14.3388232,8.95542214 13.1547669,9.54864664 12.1005259,9.54864664 C11.0454718,9.54864664 9.86195753,8.95542214 9.5925705,7.63047812 C9.1649118,5.53482331 11.9221992,1.22527389 12.040632,1.04247061 Z" id="Path" stroke="#FFFFFF" stroke-linecap="round" stroke-linejoin="round"></path>
	            <path d="M18.0775715,9.32994824 L18.1976304,9.27272727 L18.1808275,9.3978032 C18.1599595,9.54667901 17.6599403,13.0445008 16.3186964,14.220569 C15.8503858,14.6307371 15.2685206,14.8565827 14.6793381,14.8565827 C14.0261965,14.8565827 13.4397241,14.5765544 13.1491981,14.1263823 C12.8806241,13.709125 12.8941747,13.1971745 13.1852428,12.6839581 C13.9963851,11.2562188 17.9106275,9.40767762 18.0775715,9.32994824 Z" id="Path" stroke="#FFFFFF" stroke-linecap="round" stroke-linejoin="round"></path>
	        </g>
	    </g>
	</symbol>

	<symbol id="foglia-benessere-basso-nichel-white" width="25" height="22" viewBox="0 0 25 22">
	    <g id="icon_foglia_nickel" stroke="none" stroke-width="1" fill="none" fill-rule="evenodd">
	        <g id="icon-bassonickel_small_green">
	            <circle id="Oval" fill="#b87632" cx="8" cy="8" r="8"></circle>
	            <g id="BassoNickel" transform="translate(3.000000, 2.000000)" stroke="#FFFFFF" stroke-linecap="round" stroke-linejoin="round">
	                <path d="M14.4815321,0 L6.51825059,0 C5.61212705,0 4.77467995,0.501008612 4.32147329,1.31469706 L0.339687665,8.46338108 C-0.113229222,9.27676917 -0.113229222,10.2790868 0.339687665,11.0924748 L4.32147329,18.2408585 C4.77467995,19.0545469 5.61212705,19.5555556 6.51825059,19.5555556 L14.4815321,19.5555556 C15.3879454,19.5555556 16.2253925,19.0545469 16.6783094,18.2408585 L20.660095,11.0924748 C21.1133017,10.2790868 21.1133017,9.27676917 20.660095,8.46338108 L16.6783094,1.31469706 C16.2253925,0.501008612 15.3879454,0 14.4815321,0 Z" id="Stroke-1"></path>
	                <polyline id="Stroke-3" points="6.125 13.3333333 6.125 5.33333333 11.375 13.3333333 11.375 5.33333333"></polyline>
	                <path d="M14.4375,13.7777778 L14.4375,8" id="Stroke-5"></path>
	                <path d="M14.4375,6.22222222 L14.4375,5.33333333" id="Stroke-7"></path>
	            </g>
	        </g>
	    </g>
	</symbol>

	<symbol id="foglia-benessere-light-white" width="20" height="21" viewBox="0 0 20 21">
	    <g id="icon_foglia_light" stroke="none" stroke-width="1" fill="none" fill-rule="evenodd">
	        <g id="Leggero">
	            <circle id="Oval" fill="#b87632" cx="8" cy="8" r="8"></circle>
	            <path d="M15,8.61764706 C15,8.61764706 15.949998,8.91643039 16.5338819,9.76029143 C17.1005578,10.5791193 17.2058824,11.2647059 17.2058824,11.2647059" id="Stroke-5" stroke="#FFFFFF" stroke-linecap="round" stroke-linejoin="round"></path>
	            <path d="M7.94117647,3.56141273 C7.94117647,3.56141273 8.93087757,3.87866137 9.61622741,4.90938924 C10.2811566,5.90947528 10.5077417,6.41031077 10.5077417,6.41031077 C10.5077417,6.41031077 10.1712209,4.17292863 11.6311559,3.02782218 C12.812755,2.10117088 15,2 15,2 C15,2 14.8615314,3.66311192 14.2055537,4.68063211 C13.0147234,6.52653841 10.5077417,6.41031077 10.5077417,6.41031077" id="Stroke-7" stroke="#FFFFFF" stroke-linecap="round" stroke-linejoin="round"></path>
	            <path d="M2.67435464,13.5808824 L11.0294118,13.5808824 L11.0294118,17.8823529 L1.82823529,17.8823529 C1.06216216,17.8823529 0.441176471,17.2600735 0.441176471,16.4926912 L0.441176471,12.1470588" id="Stroke-9" stroke="#FFFFFF" stroke-linecap="round" stroke-linejoin="round"></path>
	            <path d="M2.58329504,13.5889605 L1.82703467,13.5889605 L1.3721362,13.5280948 C0.822807995,13.5280948 0.377412684,12.9492285 0.377412684,12.2349983 C0.377412684,11.5210536 0.822807995,10.9419017 1.3721362,10.9419017 L2.58329504,10.9419017" id="Stroke-11" stroke="#FFFFFF" stroke-linecap="round" stroke-linejoin="round"></path>
	            <path d="M3.52941176,16.5588235 L3.52941176,14.7941176" id="Stroke-13" stroke="#FFFFFF" stroke-linecap="round" stroke-linejoin="round"></path>
	            <path d="M6.17647059,16.5588235 L6.17647059,14.7941176" id="Stroke-15" stroke="#FFFFFF" stroke-linecap="round" stroke-linejoin="round"></path>
	            <path d="M8.82352941,16.5588235 L8.82352941,14.7941176" id="Stroke-17" stroke="#FFFFFF" stroke-linecap="round" stroke-linejoin="round"></path>
	            <path d="M2.64790397,12.3482246 C2.64734054,12.3020946 2.64705882,12.2559646 2.64705882,12.209555 C2.64705882,9.89326851 3.61447508,8.05142237 4.94305255,7.3440953 C7.13565614,6.17686585 8.72820246,7.46263549 10.5438687,7.46263549 C12.358408,7.46263549 14.3307089,6.31749254 16.4633067,7.16600545 C18.1834709,7.85040729 18.9705882,9.89215021 18.9705882,12.209555 C18.9705882,16.6995442 16.6436056,18.9428613 14.517769,20.2599435 C13.3649829,20.97426 12.0028811,20.0424334 10.5438687,20.0424334 C9.08485621,20.0424334 7.72275441,20.97426 6.56968664,20.2599435 C5.69889932,19.720362 4.88332854,19.0183468 4.22354728,18.0719824" id="Stroke-3" stroke="#FFFFFF" stroke-linecap="round" stroke-linejoin="round"></path>
	        </g>
	    </g>
	</symbol>

    <symbol id="nota" width="16" height="16" viewBox="0 0 16 16">
	    <defs><path id="kqw4a" d="M940.233 679.811l5.495.016a.97.97 0 0 1 .972.966.953.953 0 0 1-.088.397c-.62 1.761-.664 2.945-.267 4.133.437 1.313 1.154 1.527 2.799 3.172a.966.966 0 0 1 .208 1.056.962.962 0 0 1-.208.315.962.962 0 0 1-.315.209.945.945 0 0 1-.373.074h-4.444l-.862 8.29a.163.163 0 0 1-.177.143.197.197 0 0 1-.177-.172l-.859-8.26h-4.446a.97.97 0 0 1-.686-1.654c1.645-1.646 2.361-1.86 2.811-3.188.397-1.189.353-2.372-.266-4.133a.973.973 0 0 1-.09-.397.97.97 0 0 1 .973-.967z"/></defs><g><g transform="rotate(45 1296.833 -781.852)"><use fill="#f79922" xlink:href="#kqw4a"/></g></g>
	</symbol>

	<symbol id="dosi" width="15" height="13" viewBox="0 0 15 13">
	    <g id="icon_dosi" stroke="none" stroke-width="1" fill="none" fill-rule="evenodd" transform='scale(0.85)' transform-origin="center center">
	        <path d="M12.3820624,0.024971865 C13.7973694,0.129212743 14.9403737,1.31775857 14.9977926,2.81517237 C15.0030869,2.95324277 14.9988547,3.09152698 14.9851281,3.22897734 L14.5653951,7.43192754 L13.6015459,7.32940467 L14.0212789,3.12645447 C14.0302929,3.03619301 14.0330721,2.94538398 14.0295954,2.85471535 C13.9915988,1.86381067 13.2296872,1.07887246 12.2903712,1.02097987 L11.354301,11.1891647 C11.2597873,12.2158321 10.4243528,13 9.42507859,13 L3.99420652,13 C2.95704521,13 2.10374359,12.1572422 2.05816842,11.0878844 L1.8483472,6.16472268 C1.81871948,5.46954953 1.67214531,4.78499362 1.41517907,4.14166635 L0.0366924248,0.690559138 C-0.0652832133,0.435258252 0.0525863116,0.142979761 0.299961377,0.0377368552 C0.358526751,0.0128208836 0.421258245,1.20093683e-17 0.484604604,0 L12.3843613,1.11022302e-16 L12.3820624,0.024971865 Z M3.15220266,3.5 L3.15220266,4 L5.58251315,4 L5.58251315,3.5 L3.15220266,3.5 Z M3.58458936,5 L3.58458936,5.5 L5.57459012,5.5 L5.57459012,5 L3.58458936,5 Z M3.79327672,6.5 L3.79327672,7 L5.57459012,7 L5.57459012,6.5 L3.79327672,6.5 Z M3.79327672,8 L3.79327672,8.5 L5.57459012,8.5 L5.57459012,8 L3.79327672,8 Z M3.79327672,9.5 L3.79327672,10 L5.57459012,10 L5.57459012,9.5 L3.79327672,9.5 Z" id="Combined-Shape" fill="#F79922"></path>
	    </g>
	</symbol>

	<symbol id="cottura" width="14" height="14" viewBox="0 0 14 14">
	    <g id="icon_cottura" stroke="none" stroke-width="1" fill="none" fill-rule="evenodd">
	        <path d="M12.4765591,9.33333333 C12.4552506,9.50283861 12.4444444,9.67415604 12.4444444,9.84633907 L12.4444444,12.4444444 C12.4444444,13.3035541 11.7479985,14 10.8888889,14 L3.11111111,14 C2.2520015,14 1.55555556,13.3035541 1.55555556,12.4444444 L1.55555556,9.94139763 C1.55555556,9.73714739 1.54134119,9.53399698 1.51334235,9.33333333 L0.388888889,9.33333333 C0.174111486,9.33333333 2.63026459e-17,9.15922185 0,8.94444444 C-2.63026459e-17,8.72966704 0.174111486,8.55555556 0.388888889,8.55555556 L1.33162112,8.55555556 C1.20243932,8.16626192 1.01874505,7.79476825 0.784138997,7.45269097 C2.36507614,6.64927843 4.43915021,6.24757216 7.00636122,6.24757216 C9.53888618,6.24757216 11.6076751,6.64927843 13.2127279,7.45269097 C12.9698938,7.79200439 12.7816234,8.16411592 12.6522398,8.55555556 L13.6111111,8.55555556 C13.8258885,8.55555556 14,8.72966704 14,8.94444444 C14,9.15922185 13.8258885,9.33333333 13.6111111,9.33333333 L12.4765591,9.33333333 Z M8.55555556,5.83333333 L5.44444444,5.83333333 C5.44444444,5.18900113 6.14089039,4.66666667 7,4.66666667 C7.85910961,4.66666667 8.55555556,5.18900113 8.55555556,5.83333333 Z M1.24197989,6.55630543 C1.64598806,5.89641305 1.8229849,5.30581273 1.7729704,4.78450446 C1.69794865,4.00254207 0.868257725,3.77191037 0.781705395,2.76281712 C0.695153065,1.75372388 2.06772998,0.780328688 2.07531973,0.777782616 C2.08290948,0.775236543 1.62657582,1.77812374 1.65751864,2.68526801 C1.68846147,3.59241229 2.47728452,3.96504055 2.4638565,4.61418285 C2.45490449,5.04694438 2.04761228,5.69431858 1.24197989,6.55630543 Z M3.12826856,5.77852766 C3.53227674,5.11863527 3.70927358,4.52803495 3.65925908,4.00672669 C3.58423733,3.22476429 2.7545464,2.99413259 2.66799407,1.98503935 C2.58144174,0.975946102 3.95401866,0.00255090993 3.96160841,4.83782688e-06 C3.96919816,-0.00254123428 3.5128645,1.00034596 3.54380732,1.90749023 C3.57475015,2.81463451 4.36357319,3.18726277 4.35014518,3.83640507 C4.34119316,4.2691666 3.93390096,4.9165408 3.12826856,5.77852766 Z" id="Combined-Shape" fill="#F79922"></path>
	    </g>
	</symbol>

	<symbol id="difficolta" width="16" height="16" viewBox="0 0 16 16">
	    <g id="icon_difficolta" stroke="none" stroke-width="1" fill="none" fill-rule="evenodd">
	        <path d="M2.99833361,10 C0.643120509,8.65734566 -0.324564682,6.97456571 0.0952780324,4.95166016 C0.679130104,2.3333861 2.15170353,1.19040107 4.5129983,1.52270508 C5.27176878,0.507568359 6.43499125,1.94877802e-16 8.00266572,0 C9.57034019,0 10.7304828,0.507568359 11.4830935,1.52270508 C13.833033,1.35302689 15.3066223,2.49601192 15.9038615,4.95166016 C16.3258833,6.81193989 15.3584847,8.49471984 13.0016658,10 L13.0016658,14.9969696 C13.0016658,15.550928 12.5538013,16 12.0013325,16 L3.99866682,16 C3.44619804,16 2.99833361,15.550928 2.99833361,14.9969696 L2.99833361,10 Z M6.49949986,8.97878723 L6.49949986,13.9939392 L6.99966647,13.9939392 L6.99966647,8.97878723 L6.49949986,8.97878723 Z M9.00033289,8.97878723 L9.00033289,13.9939392 L9.5004995,13.9939392 L9.5004995,8.97878723 L9.00033289,8.97878723 Z" id="Combined-Shape" fill="#F79922"></path>
	    </g>
	</symbol>

	<symbol id="preparazione" width="14" height="17" viewBox="0 0 14 17">
	    <g id="icon_preparazione" stroke="none" stroke-width="1" fill="none" fill-rule="evenodd">
	        <path d="M11.0496997,17 C10.1762801,17 8.07367885,16.5084031 8.07367885,13.1248921 C8.07367885,11.1477067 10.6001897,8.32110195 10.6001897,6.30755958 C10.6001897,2.43340099 10.2945097,3.3266808 10.2945097,1.99131232 C10.2945097,0.655943843 10.4337268,0.369267973 11.0368394,0.369267973 C11.6399521,0.369267973 11.8860637,0.727612811 11.8860637,1.99131232 C11.8860637,3.25501184 11.5781745,2.46187872 11.5781745,6.30755958 C11.5781745,8.29453696 14,11.1945763 14,13.1248921 C14,16.5538488 11.9231194,17 11.0496997,17 Z M3.88621863,0 C6.67618563,0 7.82796497,0.491812521 7.82796497,3.87510786 C7.82796497,7.2200552 6.04715677,6.39518166 5.34290808,7.76163436 C4.80725927,8.80095294 4.33572867,9.82256886 4.33572867,10.6924404 C4.33572867,14.566599 4.73918495,13.6731186 4.73918495,15.0084871 C4.73918495,16.3438556 4.50219161,16.630732 3.89907894,16.630732 C3.29596627,16.630732 3.0300952,16.2844365 3.0300952,15.020737 C3.0300952,13.7570375 3.35774386,14.5381213 3.35774386,10.6924404 C3.35774386,9.82827241 2.89965116,8.79139707 2.38192933,7.73670198 C1.70925584,6.36634169 0,7.20344319 0,3.87510786 C8.19840242e-17,0.446151189 1.09625163,0 3.88621863,0 Z M2.39141746,2.37183939 L2.39141746,5.31750516 L2.88371509,5.31750516 L2.88371509,2.37183939 L2.39141746,2.37183939 Z M3.62216153,1.88866715 L3.62216153,5.7768273 L4.11445916,5.7768273 L4.11445916,1.88866715 L3.62216153,1.88866715 Z M4.8529056,2.37183939 L4.8529056,5.31750516 L5.34520323,5.31750516 L5.34520323,2.37183939 L4.8529056,2.37183939 Z" id="Combined-Shape" fill="#F79922"></path>
	    </g>
	</symbol>

	<symbol id="costo" width="15" height="15" viewBox="0 0 15 15">
	    <g id="icon_costo" stroke="none" stroke-width="1" fill="none" fill-rule="evenodd">
	        <path d="M7.5,15 C3.35786438,15 0,11.6421356 0,7.5 C0,3.35786438 3.35786438,0 7.5,0 C11.6421356,0 15,3.35786438 15,7.5 C15,11.6421356 11.6421356,15 7.5,15 Z M11,10.5747744 L10.2855153,9.78508078 C9.92618205,10.1109877 9.52716097,10.3658598 9.08844011,10.5497047 C8.64971925,10.7335497 8.2005594,10.8254708 7.74094708,10.8254708 C7.02228053,10.8254708 6.37883292,10.6290939 5.81058496,10.2363343 C5.24233699,9.84357464 4.83287033,9.3296522 4.5821727,8.69455153 L7.97910864,8.69455153 L7.97910864,8.01767131 L4.39415042,8.01767131 C4.36908065,7.84218297 4.35654596,7.66669726 4.35654596,7.49120891 C4.35654596,7.3658601 4.36072419,7.26976078 4.36908078,7.20290808 L7.97910864,7.20290808 L7.97910864,6.53856267 L4.49442897,6.53856267 C4.70334366,5.84496589 5.10654297,5.27672645 5.704039,4.8338273 C6.30153502,4.39092815 6.98049759,4.16948189 7.74094708,4.16948189 C8.2005594,4.16948189 8.65389749,4.26767033 9.10097493,4.46405014 C9.54805237,4.66042995 9.94289522,4.92992586 10.2855153,5.27254596 L10.9874652,4.40764345 C10.5612792,3.99817065 10.0640697,3.67853597 9.49582173,3.44872981 C8.92757376,3.21892364 8.33844316,3.10402228 7.72841226,3.10402228 C7.00138912,3.10402228 6.32242655,3.25026038 5.69150418,3.54274095 C5.0605818,3.83522152 4.52994644,4.24259906 4.09958217,4.76488579 C3.6692179,5.28717253 3.38300907,5.87839224 3.24094708,6.53856267 L2,6.53856267 L2,7.20290808 L3.14066852,7.20290808 C3.13231194,7.26976078 3.1281337,7.37003833 3.1281337,7.50374373 C3.1281337,7.62909255 3.13649017,7.80040003 3.15320334,8.01767131 L2,8.01767131 L2,8.69455153 L3.29108635,8.69455153 C3.45821811,9.32129561 3.75487252,9.88117859 4.1810585,10.3742173 C4.60724447,10.8672559 5.12325602,11.2537423 5.72910864,11.533688 C6.33496125,11.8136337 6.9846762,11.9536045 7.67827298,11.9536045 C8.2799473,11.9536045 8.87325613,11.8303466 9.45821727,11.5838273 C10.0431784,11.337308 10.5571008,11.0009603 11,10.5747744 Z" id="Oval-3" fill="#F79922"></path>
	    </g>
	</symbol>

	<symbol id="nota-green" width="16" height="16" viewBox="0 0 16 16">
	    <defs><path id="kqw4a" d="M940.233 679.811l5.495.016a.97.97 0 0 1 .972.966.953.953 0 0 1-.088.397c-.62 1.761-.664 2.945-.267 4.133.437 1.313 1.154 1.527 2.799 3.172a.966.966 0 0 1 .208 1.056.962.962 0 0 1-.208.315.962.962 0 0 1-.315.209.945.945 0 0 1-.373.074h-4.444l-.862 8.29a.163.163 0 0 1-.177.143.197.197 0 0 1-.177-.172l-.859-8.26h-4.446a.97.97 0 0 1-.686-1.654c1.645-1.646 2.361-1.86 2.811-3.188.397-1.189.353-2.372-.266-4.133a.973.973 0 0 1-.09-.397.97.97 0 0 1 .973-.967z"/></defs><g><g transform="rotate(45 1296.833 -781.852)"><use fill="#88ba35" xlink:href="#kqw4a"/></g></g>
	</symbol>

	<symbol id="dosi-green" width="15" height="13" viewBox="0 0 15 13">
	    <g id="icon_dosi" stroke="none" stroke-width="1" fill="none" fill-rule="evenodd" transform='scale(0.85)' transform-origin="center center">
	        <path d="M12.3820624,0.024971865 C13.7973694,0.129212743 14.9403737,1.31775857 14.9977926,2.81517237 C15.0030869,2.95324277 14.9988547,3.09152698 14.9851281,3.22897734 L14.5653951,7.43192754 L13.6015459,7.32940467 L14.0212789,3.12645447 C14.0302929,3.03619301 14.0330721,2.94538398 14.0295954,2.85471535 C13.9915988,1.86381067 13.2296872,1.07887246 12.2903712,1.02097987 L11.354301,11.1891647 C11.2597873,12.2158321 10.4243528,13 9.42507859,13 L3.99420652,13 C2.95704521,13 2.10374359,12.1572422 2.05816842,11.0878844 L1.8483472,6.16472268 C1.81871948,5.46954953 1.67214531,4.78499362 1.41517907,4.14166635 L0.0366924248,0.690559138 C-0.0652832133,0.435258252 0.0525863116,0.142979761 0.299961377,0.0377368552 C0.358526751,0.0128208836 0.421258245,1.20093683e-17 0.484604604,0 L12.3843613,1.11022302e-16 L12.3820624,0.024971865 Z M3.15220266,3.5 L3.15220266,4 L5.58251315,4 L5.58251315,3.5 L3.15220266,3.5 Z M3.58458936,5 L3.58458936,5.5 L5.57459012,5.5 L5.57459012,5 L3.58458936,5 Z M3.79327672,6.5 L3.79327672,7 L5.57459012,7 L5.57459012,6.5 L3.79327672,6.5 Z M3.79327672,8 L3.79327672,8.5 L5.57459012,8.5 L5.57459012,8 L3.79327672,8 Z M3.79327672,9.5 L3.79327672,10 L5.57459012,10 L5.57459012,9.5 L3.79327672,9.5 Z" id="Combined-Shape" fill="#88ba35"></path>
	    </g>
	</symbol>

	<symbol id="cottura-green" width="14" height="14" viewBox="0 0 14 14">
	    <g id="icon_cottura" stroke="none" stroke-width="1" fill="none" fill-rule="evenodd">
	        <path d="M12.4765591,9.33333333 C12.4552506,9.50283861 12.4444444,9.67415604 12.4444444,9.84633907 L12.4444444,12.4444444 C12.4444444,13.3035541 11.7479985,14 10.8888889,14 L3.11111111,14 C2.2520015,14 1.55555556,13.3035541 1.55555556,12.4444444 L1.55555556,9.94139763 C1.55555556,9.73714739 1.54134119,9.53399698 1.51334235,9.33333333 L0.388888889,9.33333333 C0.174111486,9.33333333 2.63026459e-17,9.15922185 0,8.94444444 C-2.63026459e-17,8.72966704 0.174111486,8.55555556 0.388888889,8.55555556 L1.33162112,8.55555556 C1.20243932,8.16626192 1.01874505,7.79476825 0.784138997,7.45269097 C2.36507614,6.64927843 4.43915021,6.24757216 7.00636122,6.24757216 C9.53888618,6.24757216 11.6076751,6.64927843 13.2127279,7.45269097 C12.9698938,7.79200439 12.7816234,8.16411592 12.6522398,8.55555556 L13.6111111,8.55555556 C13.8258885,8.55555556 14,8.72966704 14,8.94444444 C14,9.15922185 13.8258885,9.33333333 13.6111111,9.33333333 L12.4765591,9.33333333 Z M8.55555556,5.83333333 L5.44444444,5.83333333 C5.44444444,5.18900113 6.14089039,4.66666667 7,4.66666667 C7.85910961,4.66666667 8.55555556,5.18900113 8.55555556,5.83333333 Z M1.24197989,6.55630543 C1.64598806,5.89641305 1.8229849,5.30581273 1.7729704,4.78450446 C1.69794865,4.00254207 0.868257725,3.77191037 0.781705395,2.76281712 C0.695153065,1.75372388 2.06772998,0.780328688 2.07531973,0.777782616 C2.08290948,0.775236543 1.62657582,1.77812374 1.65751864,2.68526801 C1.68846147,3.59241229 2.47728452,3.96504055 2.4638565,4.61418285 C2.45490449,5.04694438 2.04761228,5.69431858 1.24197989,6.55630543 Z M3.12826856,5.77852766 C3.53227674,5.11863527 3.70927358,4.52803495 3.65925908,4.00672669 C3.58423733,3.22476429 2.7545464,2.99413259 2.66799407,1.98503935 C2.58144174,0.975946102 3.95401866,0.00255090993 3.96160841,4.83782688e-06 C3.96919816,-0.00254123428 3.5128645,1.00034596 3.54380732,1.90749023 C3.57475015,2.81463451 4.36357319,3.18726277 4.35014518,3.83640507 C4.34119316,4.2691666 3.93390096,4.9165408 3.12826856,5.77852766 Z" id="Combined-Shape" fill="#88ba35"></path>
	    </g>
	</symbol>

	<symbol id="difficolta-green" width="16" height="16" viewBox="0 0 16 16">
	    <g id="icon_difficolta" stroke="none" stroke-width="1" fill="none" fill-rule="evenodd">
	        <path d="M2.99833361,10 C0.643120509,8.65734566 -0.324564682,6.97456571 0.0952780324,4.95166016 C0.679130104,2.3333861 2.15170353,1.19040107 4.5129983,1.52270508 C5.27176878,0.507568359 6.43499125,1.94877802e-16 8.00266572,0 C9.57034019,0 10.7304828,0.507568359 11.4830935,1.52270508 C13.833033,1.35302689 15.3066223,2.49601192 15.9038615,4.95166016 C16.3258833,6.81193989 15.3584847,8.49471984 13.0016658,10 L13.0016658,14.9969696 C13.0016658,15.550928 12.5538013,16 12.0013325,16 L3.99866682,16 C3.44619804,16 2.99833361,15.550928 2.99833361,14.9969696 L2.99833361,10 Z M6.49949986,8.97878723 L6.49949986,13.9939392 L6.99966647,13.9939392 L6.99966647,8.97878723 L6.49949986,8.97878723 Z M9.00033289,8.97878723 L9.00033289,13.9939392 L9.5004995,13.9939392 L9.5004995,8.97878723 L9.00033289,8.97878723 Z" id="Combined-Shape" fill="#88ba35"></path>
	    </g>
	</symbol>

	<symbol id="preparazione-green" width="14" height="17" viewBox="0 0 14 17">
	    <g id="icon_preparazione" stroke="none" stroke-width="1" fill="none" fill-rule="evenodd">
	        <path d="M11.0496997,17 C10.1762801,17 8.07367885,16.5084031 8.07367885,13.1248921 C8.07367885,11.1477067 10.6001897,8.32110195 10.6001897,6.30755958 C10.6001897,2.43340099 10.2945097,3.3266808 10.2945097,1.99131232 C10.2945097,0.655943843 10.4337268,0.369267973 11.0368394,0.369267973 C11.6399521,0.369267973 11.8860637,0.727612811 11.8860637,1.99131232 C11.8860637,3.25501184 11.5781745,2.46187872 11.5781745,6.30755958 C11.5781745,8.29453696 14,11.1945763 14,13.1248921 C14,16.5538488 11.9231194,17 11.0496997,17 Z M3.88621863,0 C6.67618563,0 7.82796497,0.491812521 7.82796497,3.87510786 C7.82796497,7.2200552 6.04715677,6.39518166 5.34290808,7.76163436 C4.80725927,8.80095294 4.33572867,9.82256886 4.33572867,10.6924404 C4.33572867,14.566599 4.73918495,13.6731186 4.73918495,15.0084871 C4.73918495,16.3438556 4.50219161,16.630732 3.89907894,16.630732 C3.29596627,16.630732 3.0300952,16.2844365 3.0300952,15.020737 C3.0300952,13.7570375 3.35774386,14.5381213 3.35774386,10.6924404 C3.35774386,9.82827241 2.89965116,8.79139707 2.38192933,7.73670198 C1.70925584,6.36634169 0,7.20344319 0,3.87510786 C8.19840242e-17,0.446151189 1.09625163,0 3.88621863,0 Z M2.39141746,2.37183939 L2.39141746,5.31750516 L2.88371509,5.31750516 L2.88371509,2.37183939 L2.39141746,2.37183939 Z M3.62216153,1.88866715 L3.62216153,5.7768273 L4.11445916,5.7768273 L4.11445916,1.88866715 L3.62216153,1.88866715 Z M4.8529056,2.37183939 L4.8529056,5.31750516 L5.34520323,5.31750516 L5.34520323,2.37183939 L4.8529056,2.37183939 Z" id="Combined-Shape" fill="#88ba35"></path>
	    </g>
	</symbol>

	<symbol id="costo-green" width="15" height="15" viewBox="0 0 15 15">
	    <g id="icon_costo" stroke="none" stroke-width="1" fill="none" fill-rule="evenodd">
	        <path d="M7.5,15 C3.35786438,15 0,11.6421356 0,7.5 C0,3.35786438 3.35786438,0 7.5,0 C11.6421356,0 15,3.35786438 15,7.5 C15,11.6421356 11.6421356,15 7.5,15 Z M11,10.5747744 L10.2855153,9.78508078 C9.92618205,10.1109877 9.52716097,10.3658598 9.08844011,10.5497047 C8.64971925,10.7335497 8.2005594,10.8254708 7.74094708,10.8254708 C7.02228053,10.8254708 6.37883292,10.6290939 5.81058496,10.2363343 C5.24233699,9.84357464 4.83287033,9.3296522 4.5821727,8.69455153 L7.97910864,8.69455153 L7.97910864,8.01767131 L4.39415042,8.01767131 C4.36908065,7.84218297 4.35654596,7.66669726 4.35654596,7.49120891 C4.35654596,7.3658601 4.36072419,7.26976078 4.36908078,7.20290808 L7.97910864,7.20290808 L7.97910864,6.53856267 L4.49442897,6.53856267 C4.70334366,5.84496589 5.10654297,5.27672645 5.704039,4.8338273 C6.30153502,4.39092815 6.98049759,4.16948189 7.74094708,4.16948189 C8.2005594,4.16948189 8.65389749,4.26767033 9.10097493,4.46405014 C9.54805237,4.66042995 9.94289522,4.92992586 10.2855153,5.27254596 L10.9874652,4.40764345 C10.5612792,3.99817065 10.0640697,3.67853597 9.49582173,3.44872981 C8.92757376,3.21892364 8.33844316,3.10402228 7.72841226,3.10402228 C7.00138912,3.10402228 6.32242655,3.25026038 5.69150418,3.54274095 C5.0605818,3.83522152 4.52994644,4.24259906 4.09958217,4.76488579 C3.6692179,5.28717253 3.38300907,5.87839224 3.24094708,6.53856267 L2,6.53856267 L2,7.20290808 L3.14066852,7.20290808 C3.13231194,7.26976078 3.1281337,7.37003833 3.1281337,7.50374373 C3.1281337,7.62909255 3.13649017,7.80040003 3.15320334,8.01767131 L2,8.01767131 L2,8.69455153 L3.29108635,8.69455153 C3.45821811,9.32129561 3.75487252,9.88117859 4.1810585,10.3742173 C4.60724447,10.8672559 5.12325602,11.2537423 5.72910864,11.533688 C6.33496125,11.8136337 6.9846762,11.9536045 7.67827298,11.9536045 C8.2799473,11.9536045 8.87325613,11.8303466 9.45821727,11.5838273 C10.0431784,11.337308 10.5571008,11.0009603 11,10.5747744 Z" id="Oval-3" fill="#88ba35"></path>
	    </g>
	</symbol>

    <symbol id="more-arrow-white" width="18" height="12" viewBox="0 0 18 12">
		<g stroke="#FFF" stroke-width="1.7" fill="none" fill-rule="evenodd" stroke-linecap="round" stroke-linejoin="round">
			<path d="M12.398 10.243L16.641 6l-4.243-4.243"/>
			<path d="M1 10.005A5.32 5.32 0 016.154 6h9.471"/>
		</g>
	</symbol>

	<symbol id="more-arrow-orange" width="18" height="12" viewBox="0 0 18 12">
		<g stroke="#F7972E" stroke-width="1.7" fill="none" fill-rule="evenodd" stroke-linecap="round" stroke-linejoin="round">
			<path d="M12.398 10.243L16.641 6l-4.243-4.243"/>
			<path d="M1 10.005A5.32 5.32 0 016.154 6h9.471"/>
		</g>
	</symbol>

    <symbol id="spesa-new" width="29" height="25" viewBox="0 0 29 25">
		<g stroke="#FFFFFF" fill="none" fill-rule="evenodd" stroke-linecap="round">
			<path d="M4.457 9.465H2.01a1 1 0 00-.952 1.306l3.197 9.95A4 4 0 008.063 23.5h13.02a4 4 0 003.825-2.832l3.028-9.91a1 1 0 00-.956-1.292h-2.497 0M12.541 1.086L6.985 9.428M16.985 1.086l5.556 8.342M9.5 9.5h10" stroke-width="1.5"/>
			<path stroke-width="1.2" d="M14.5 13v7M18.5 13l-1 7M10.5 13l1 7M23 13l-2 7M6 13l2 7"/>
		</g>
	</symbol>

    <symbol id="spesa-orange" width="29" height="24" viewBox="0 0 29 24">
	    <g id="icon_spesa" stroke="none" stroke-width="1" fill="none" fill-rule="evenodd" stroke-linecap="round">
	        <g id="icon_basket" transform="translate(1.000000, 1.000000)" stroke="#f7972e" stroke-width="1.2">
	            <g id="icon_expense-copy">
	                <path d="M3.45662191,8.46484375 L1.01026704,8.46484375 C0.457982288,8.46484375 0.010267038,8.912559 0.010267038,9.46484375 C0.010267038,9.56865428 0.02643139,9.67183178 0.058179221,9.77066852 L3.25464166,19.7218342 C3.7861197,21.3764215 5.3251414,22.4985352 7.06299293,22.4985352 L20.0822698,22.4985352 C21.841151,22.4985352 23.3936499,21.3495744 23.9076562,19.6674744 L26.9360171,9.75707856 C27.0974139,9.22890292 26.800081,8.66989398 26.2719053,8.50849715 C26.1771928,8.47955544 26.0787063,8.46484375 25.9796705,8.46484375 L23.4825887,8.46484375" id="Path-3"></path>
	                <path d="M11.5406505,0.0864195076 L5.98525249,8.4283288" id="Path-4"></path>
	                <path d="M21.5406505,0.0864195076 L15.9852525,8.4283288" id="Path-4-Copy" transform="translate(18.762952, 4.257374) scale(-1, 1) translate(-18.762952, -4.257374) "></path>
	                <path d="M8.5,8.5 L18.5,8.5" id="Path-6"></path>
	            </g>
	            <path d="M13.5,12 L13.5,19" id="Line-2"></path>
	            <path d="M17.5,12 L16.5,19" id="Line-2-Copy-4"></path>
	            <path d="M9.5,12 L10.5,19" id="Line-2-Copy-3"></path>
	            <path d="M22,12 L20,19" id="Line-2-Copy"></path>
	            <path d="M5,12 L7,19" id="Line-2-Copy-2"></path>
	        </g>
	    </g>
	</symbol>

    <symbol id="podcast" width="22" height="33" viewBox="0 0 22 33">
		<g fill="none" fill-rule="evenodd">
			<path d="M4 15h14a7 7 0 01-14 0z" fill-opacity=".334" fill="#7B69A2"/>
			<path d="M11 .85a6.13 6.13 0 014.349 1.801A6.13 6.13 0 0117.15 7h0v9a6.13 6.13 0 01-1.801 4.349A6.13 6.13 0 0111 22.15a6.13 6.13 0 01-4.349-1.801A6.13 6.13 0 014.85 16h0V7a6.13 6.13 0 011.801-4.349A6.13 6.13 0 0111 .85z" stroke="#2F2240" stroke-width="1.7"/>
			<path d="M1 16c0 5.523 4.477 10 10 10s10-4.477 10-10" stroke="#2F2240" stroke-width="1.7" stroke-linecap="round"/>
			<path d="M10.15 26.111h1.7v5.15a.85.85 0 01-1.7 0v-5.15z" fill="#171C2A"/>
		</g>
	</symbol>

    <symbol id="stampa" width="26" height="23" viewBox="0 0 26 23">
		<g transform="translate(1 1)" stroke="#2F2240" stroke-width="1.5" fill="none" fill-rule="evenodd">
			<path d="M5.045 17H1c-.552 0-1-.416-1-.929V6.786C0 5.247 1.343 4 3 4h18c1.657 0 3 1.247 3 2.786v9.285c0 .513-.448.929-1 .929h-3.914 0"/>
			<rect x="5" y="10" width="14" height="11" rx="1"/><path d="M5 4.022V1a1 1 0 011-1h12a1 1 0 011 1v3.032h0"/>
		</g>
	</symbol>

    <symbol id="mail" width="23" height="19" viewBox="0 0 23 19">
		<g id="icon_mail" stroke="none" stroke-width="1.5" fill="none" fill-rule="evenodd">
			<g id="Group-7" transform="translate(1.000000, 1.000000)" fill-rule="nonzero" stroke="#171C2A" stroke-width="1.5">
				<path d="M0,1.96149943 C0,0.878470822 0.757562583,0 1.69084198,0 L19.309158,0 C20.2430012,0 21,0.878654351 21,1.96149943 L21,12.7500279 C21,15.0966357 19.3587284,17 17.3363759,17 L3.66362411,17 C1.64055297,17 0,15.0962228 0,12.7500279 L0,1.96149943 L0,1.96149943 Z" id="Path"></path>
				<polyline id="Path" stroke-linecap="round" stroke-linejoin="round" points="18.9622652 4 10.4811326 12.4811326 2 4"></polyline>
			</g>
		</g>
	</symbol>

    <symbol id="user" width="33" height="32" viewBox="0 0 33 32">
		<g fill="none" fill-rule="evenodd">
			<path d="M7.658 15.28C7.658 12.366 10.056 10 13 10c2.95 0 5.342 2.37 5.342 5.28 0 2.917-2.398 5.282-5.342 5.282-2.95 0-5.342-2.37-5.342-5.281z" stroke="#4E3969" stroke-width="2"/>
			<path d="M1.5 30.243s2.693-6.16 6.37-6.16c1.187 0 3.525 1.026 5.31 1.026 1.484 0 3.38-1.027 5.309-1.027 3.028 0 4.832 4.022 6.085 6.161" stroke="#4E3969" stroke-width="2" stroke-linecap="round"/>
			<path d="M27 1.25c1.03 0 1.962.399 2.637 1.038a3.507 3.507 0 011.113 2.554c0 .905-.351 1.752-.932 2.386-.8.991-3.579 3.393-3.585 3.398 0 0-1.57 1.124-1.733 1.124-.164 0-1.733-1.124-1.74-1.13 0 0-2.784-2.406-3.58-3.396a3.535 3.535 0 01-.93-2.382c0-.996.423-1.9 1.113-2.554A3.825 3.825 0 0122 1.25c.664 0 1.312.173 1.857.467.24.13.463.3.66.491A3.758 3.758 0 0127 1.25z" fill="#F7972E" stroke="#FFF" stroke-width="1.5"/>
		</g>
	</symbol>

    <symbol id="share-facebook" width="28" height="28" viewBox="0 0 28 28">
		<path d="M28 13.884C28 6.217 21.731 0 14 0S0 6.217 0 13.884c0 6.93 5.119 12.673 11.813 13.716v-9.702H8.257v-4.014h3.556v-3.06c0-3.479 2.09-5.402 5.288-5.402 1.532 0 3.134.271 3.134.271V9.11H18.47c-1.738 0-2.282 1.07-2.282 2.17v2.604h3.883l-.62 4.014h-3.263V27.6C22.881 26.56 28 20.815 28 13.884z" fill="#1A77F3" fill-rule="evenodd"/>
	</symbol>

	<symbol id="share-pinterest" width="28" height="28" viewBox="0 0 28 28">
		<path d="M14 0c7.732 0 14 6.268 14 14s-6.268 14-14 14c-1.442 0-2.833-.218-4.142-.623.609-.784 1.66-2.278 2.1-3.77.173-.588.991-3.63.991-3.63.49.876 1.922 1.645 3.444 1.645 4.531 0 7.607-3.87 7.607-9.052C24 8.65 20.457 5 15.074 5 8.376 5 5 9.5 5 13.252c0 2.273.917 4.294 2.886 5.047.323.125.613.006.706-.33.065-.23.22-.814.288-1.058.094-.332.06-.448-.202-.738-.567-.627-.931-1.44-.931-2.591 0-3.339 2.664-6.327 6.94-6.327 3.786 0 5.866 2.167 5.866 5.061 0 3.81-1.799 7.027-4.47 7.027-1.474 0-2.577-1.144-2.224-2.546.424-1.674 1.245-3.48 1.245-4.689 0-1.081-.623-1.982-1.904-1.982-1.508 0-2.716 1.462-2.716 3.42 0 1.247.448 2.09.448 2.09L9.12 22.835c-.379 1.501-.266 3.24-.152 4.234C3.721 25.046 0 19.958 0 14 0 6.268 6.268 0 14 0z" fill="#E62222" fill-rule="evenodd"/>
	</symbol>

	<symbol id="share-whatsapp" width="28" height="28" viewBox="0 0 28 28">
		<path d="M14 0c7.732 0 14 6.268 14 13.994 0 7.732-6.268 14-14 14-2.621 0-5.076-.72-7.173-1.976L.484 27.775l1.803-6.107A13.926 13.926 0 010 14C0 6.268 6.268 0 14 0zM8.388 7.035c-.49.069-.846.397-1.071.674-.27.328-.594.818-.807 1.463-.017.058-.034.11-.052.167a4.121 4.121 0 00.093 2.5c.265.755.65 1.654 1.233 2.605.985 1.619 2.056 2.621 2.782 3.284.818.754 1.832 1.682 3.44 2.454 1.486.714 2.834.98 3.739 1.089.369.034 1.048.04 1.826-.254.357-.138.657-.305.899-.484.64-.455 1.089-1.14 1.204-1.912v-.018c.04-.294.035-.547.017-.76a.508.508 0 00-.293-.42c-1.13-.52-2.265-1.038-3.394-1.556a.319.319 0 00-.374.08l-1.533 1.729a.42.42 0 01-.478.115 10.883 10.883 0 01-2.95-1.815 10.994 10.994 0 01-2.483-3.082 2.684 2.684 0 001.054-1.377c0-.006.006-.012.006-.012.161-.495.127-1.03-.052-1.52-.305-.813-.916-2.386-1.152-2.628-.04-.04-.086-.08-.086-.08a1.017 1.017 0 00-.634-.254c-.08-.006-.167-.006-.26-.006a4.82 4.82 0 00-.674.018z" fill="#00E676" fill-rule="nonzero"/>
	</symbol>

	<symbol id="share-messenger" width="28" height="28" viewBox="0 0 28 28">
		<g fill="none" fill-rule="evenodd">
			<path d="M14 0C6.113 0 0 5.777 0 13.58c0 4.082 1.673 7.609 4.397 10.045.228.206.366.49.378.798l.076 2.49c.025.794.845 1.31 1.572.991L9.2 26.68c.237-.104.499-.124.746-.056 1.277.352 2.637.538 4.054.538 7.887 0 14-5.778 14-13.58C28 5.776 21.887 0 14 0z" fill="#1A77F3"/><path d="M5.594 17.552l4.113-6.524a2.102 2.102 0 013.037-.56l3.27 2.453a.84.84 0 001.011-.003l4.417-3.352c.589-.448 1.36.26.964.885l-4.11 6.52a2.102 2.102 0 01-3.037.561l-3.27-2.453a.84.84 0 00-1.012.003l-4.42 3.355c-.588.448-1.36-.26-.963-.885z" fill="#FFF"/>
		</g>
	</symbol>

	<symbol id="share-twitter" width="30" height="25" viewBox="0 0 30 25">
		<path d="M26.813 5.996s-.044 2.738-.454 4.456c-.41 1.704-1.784 6.466-5.88 9.816-4.096 3.35-9.098 4.077-11.936 3.888-2.823-.19-6.305-1.267-8.543-2.65 0 0 5.134.553 8.923-2.564 0 0-3.832.175-5.646-4.208 0 0 1.302.233 2.72-.16 0 0-4.827-.874-4.885-6.044 0 0 1.58.772 2.75.699 0 0-4.608-3.51-1.8-8.039 0 0 4.608 6.088 12.624 6.32-1.945-5.344 6.773-10.412 10.357-5.548 0 0 1.39-.044 3.935-1.413 0 0-.615 1.923-2.56 3.204 0 0 1.463-.014 3.262-.786-.132.204-1.229 1.879-2.867 3.029z" fill="#009EFF" fill-rule="nonzero"/>
	</symbol>

    <symbol id="faq-icon" width="22" height="22" viewBox="0 0 22 22">
		<g>
			<g>
				<path fill="#ffaf00" d="M0 11C0 4.925 4.925 0 11 0s11 4.925 11 11-4.925 11-11 11c-2.154 0-4.164-.62-5.86-1.69L1.007 21l.684-4.136A10.949 10.949 0 0 1 0 11z"/>
			</g>
			<g>
				<path fill="#fff" d="M10.999 17.252c.343 0 .635-.12.876-.36.24-.24.361-.53.361-.872a1.26 1.26 0 0 0-.361-.888 1.244 1.244 0 0 0-1.752 0 1.26 1.26 0 0 0-.361.888c0 .341.12.632.361.872s.533.36.876.36zm-.155-3.44c.341 0 .605-.061.792-.184.187-.123.28-.307.28-.552v-.112c0-.277.099-.525.296-.744.197-.219.445-.435.744-.648.576-.427 1.005-.867 1.288-1.32.283-.453.424-.99.424-1.608 0-.49-.09-.925-.272-1.304a2.816 2.816 0 0 0-.728-.952 3.075 3.075 0 0 0-1.056-.576 4.149 4.149 0 0 0-1.272-.192c-.885 0-1.6.157-2.144.472a4.237 4.237 0 0 0-1.312 1.144c-.117.15-.21.304-.28.464-.07.16-.104.33-.104.512 0 .16.032.293.096.4a.95.95 0 0 0 .336.304c.085.053.19.099.312.136.123.037.243.056.36.056a.79.79 0 0 0 .496-.16c.139-.107.283-.277.432-.512.213-.341.432-.595.656-.76.224-.165.528-.248.912-.248.395 0 .715.107.96.32.245.213.368.539.368.976 0 .181-.021.347-.064.496a1.68 1.68 0 0 1-.216.456 2.65 2.65 0 0 1-.408.472c-.17.16-.379.341-.624.544-.49.384-.835.733-1.032 1.048-.197.315-.296.67-.296 1.064v.08c0 .619.352.928 1.056.928z"/>
			</g>
		</g>
	</symbol>

</svg>
