<svg height="46" viewBox="0 0 260 46" width="260" xmlns="http://www.w3.org/2000/svg" xmlns:xlink="http://www.w3.org/1999/xlink">
    <mask id="a" fill="#fff">
        <path d="m.34462057.28103108h42.96567233v42.81149412h-42.96567233z" fill="#fff" fill-rule="evenodd"/>
    </mask>
    <mask id="b" fill="#fff">
        <path d="m0 .4383021h24.3372277v26.6864274h-24.3372277z" fill="#fff" fill-rule="evenodd"/>
    </mask>
    <g fill="none" fill-rule="evenodd">
        <g fill="#f7972e">
            <path d="m23.3099427 11.7593332h-4.4940978v-.5000048c0-2.96545415-1.6389208-4.85288369-4.2656661-4.85288369-3.3137943 0-5.06627324 2.7353987-5.06627324 7.89369309 0 4.8528836 1.59946034 7.2797687 4.83696464 7.2797687 1.8664755 0 3.0090725-.9255408 3.0090725-2.4268851 0-.9228812-.49457-1.3470874-1.5240473-1.3470874h-.9518718v-4.8134329h9.4832041v13.6308937h-4.2647893l-.6475885-1.5407949c-1.3714671 1.4632233-3.1221922 2.0421296-6.1317032 2.0421296-3.73426643 0-6.81831365-1.0399037-8.9890725-2.9645676-2.70478921-2.4277716-4.30424958-6.3936786-4.30424958-10.5519634 0-7.74032281 5.14168634-13.1698964 12.53173698-13.1698964 2.399629 0 3.8083642.42376295 5.2170994 1.57891592l.5327151-1.07846784h5.0285666z" mask="url(#b)" transform="translate(0 16.563103)"/>
            <path d="m34.2420438 38.4121609h1.2561552v4.7744255h-10.0176729v-4.7744255h1.2570321v-6.9309178h-1.2570321v-4.7761985h8.7615177zm.1135582-17.2900602c0 2.3493134-1.789747 3.9282293-4.4173693 3.9282293-2.6289376 0-4.4186846-1.5789159-4.4186846-3.8896651 0-2.3883209 1.7520404-3.9273428 4.4945362-3.9273428 2.5899157 0 4.3415177 1.5789159 4.3415177 3.8887786z"/>
            <path d="m55.0385801 43.1863647h-8.1126138v-1.347974c-1.3328837 1.2704024-2.6289376 1.8089714-4.4949747 1.8089714-3.4654975 0-6.2075548-2.5017972-6.2075548-5.69775 0-3.0807034 2.8183473-5.3905661 6.5885666-5.3905661 1.6761888 0 2.970489.385642 4.1139629 1.1941605.0385834-.2703927.0385834-.5789063.0385834-.7331631 0-1.653828-1.1820573-2.5017972-3.4282293-2.5017972-1.5236088 0-2.4767959.423763-3.3137943 1.4632233h-2.514064v-4.8134329c3.9227993-.771284 5.2175379-.9237677 7.237032-.9237677 6.2461383 0 8.9496121 1.8475355 8.9496121 6.0448277v6.1228427h1.1434739zm-11.350118-5.5461527c0 .9627752.7997301 1.8107444 1.7130185 1.8107444.8773356 0 1.6389207-.8085184 1.6389207-1.6941653 0-.8852035-.8383136-1.6946085-1.7520404-1.6946085-.8383137 0-1.5998988.7309468-1.5998988 1.5780294z"/>
            <path d="m64.2175447 38.4121609h1.2574705v4.7744255h-10.0172344v-4.7744255h1.2574705v-16.134464h-1.2574705v-4.7748687h8.7597639z"/>
            <path d="m74.8060337 38.4121609h1.2570321v4.7744255h-10.016796v-4.7744255h1.2574705v-16.134464h-1.2574705v-4.7748687h8.7597639z"/>
            <path d="m95.755457 34.9461258c0 5.1977451-3.8088027 8.7013249-9.4845194 8.7013249-5.6752782 0-9.4840809-3.5035798-9.4840809-8.7013249 0-5.2753168 3.8088027-8.7017683 9.5980775-8.7017683 5.5617201 0 9.3705228 3.5430306 9.3705228 8.7017683m-11.5794266 0c0 2.079364.762462 3.2744109 2.0572006 3.2744109 1.3710287 0 2.1321754-1.1564827 2.1321754-3.3120886 0-2.0407998-.7611467-3.2354035-2.0944688-3.2354035-1.3324452 0-2.0949072 1.1946037-2.0949072 3.2730812"/>
        </g>
    </g>
</svg>